<svg width="62" height="59" viewBox="0 0 62 59" fill="none" xmlns="http://www.w3.org/2000/svg">
<path d="M14.8594 6.2793C15.8659 6.2793 18.0909 6.2802 21.1104 6.2793" stroke="black" stroke-width="3" stroke-miterlimit="3"/>
<path d="M52.3434 6.125C53.8137 6.125 54.6967 6.13587 56.5586 6.13497C58.2662 6.13497 59.6544 7.66794 59.6544 9.55661L59.4131 53.0337C59.4026 54.9484 57.9883 56.5056 56.2564 56.5092L4.70882 56.6125C2.99967 56.6125 1.61304 55.0795 1.61304 53.1909V9.55661C1.61304 7.66794 2.99967 6.13399 4.70882 6.13399C5.63895 6.13399 5.85582 6.13407 8.56418 6.13497" stroke="black" stroke-width="3" stroke-miterlimit="3"/>
<path d="M1.93811 17.4004H59.3273" stroke="black" stroke-width="3" stroke-miterlimit="3" stroke-linecap="square"/>
<path d="M11.7333 2V10.6287" stroke="black" stroke-width="3" stroke-miterlimit="3" stroke-linecap="round"/>
<path d="M24.1157 2V10.6287" stroke="black" stroke-width="3" stroke-miterlimit="3" stroke-linecap="round"/>
<path d="M36.498 2V10.6287" stroke="black" stroke-width="3" stroke-miterlimit="3" stroke-linecap="round"/>
<path d="M48.8796 2V10.6287" stroke="black" stroke-width="3" stroke-miterlimit="3" stroke-linecap="round"/>
<path fill-rule="evenodd" clip-rule="evenodd" d="M21.8975 40.9256V39.679H23.6822V34.0013C23.6822 33.781 23.6884 33.5497 23.7009 33.3072L22.4336 34.4791C22.3806 34.5288 22.3267 34.5627 22.2719 34.5806C22.2172 34.5986 22.1634 34.6076 22.1103 34.6076C22.0291 34.6076 21.9552 34.5885 21.8885 34.5501C21.8214 34.5118 21.7716 34.4681 21.7391 34.419L21.2638 33.6978L23.9503 31.1724H25.1875V39.679H26.7715V40.9256H21.8975ZM30.5546 37.0387C30.2502 37.0387 29.9518 36.9803 29.6594 36.8635C29.3669 36.7468 29.1059 36.5708 28.8762 36.3355C28.6467 36.0996 28.4628 35.8077 28.3247 35.4599C28.1866 35.1114 28.1175 34.7037 28.1175 34.2367C28.1175 33.8014 28.1906 33.3927 28.3369 33.0107C28.483 32.6293 28.6884 32.295 28.9526 32.0076C29.2163 31.7202 29.5332 31.4933 29.903 31.3268C30.2724 31.161 30.6805 31.0781 31.1272 31.0781C31.5783 31.0781 31.9837 31.1566 32.3433 31.3135C32.7024 31.4709 33.0089 31.6909 33.2629 31.9735C33.5169 32.2567 33.7118 32.5958 33.8477 32.991C33.9837 33.3862 34.0516 33.8194 34.0516 34.2905C34.0516 34.5917 34.0284 34.877 33.9818 35.1464C33.9352 35.4158 33.8684 35.6751 33.7812 35.9241C33.6934 36.1732 33.5886 36.4157 33.4668 36.6516C33.3449 36.8875 33.209 37.1243 33.059 37.362L31.0419 40.5412C30.9732 40.6489 30.8708 40.74 30.7348 40.8143C30.5984 40.8885 30.443 40.9256 30.2686 40.9256H28.8852L31.6212 37.1465C31.6899 37.0525 31.7549 36.9606 31.8161 36.8708C31.8767 36.781 31.9355 36.6911 31.9924 36.6013C31.7892 36.745 31.5659 36.854 31.3222 36.9282C31.0786 37.0019 30.8227 37.0387 30.5546 37.0387ZM32.6081 34.1226C32.6081 33.8574 32.5716 33.6206 32.4985 33.4122C32.4254 33.2032 32.3216 33.0269 32.1873 32.8832C32.0536 32.7395 31.8943 32.6295 31.7097 32.5528C31.5245 32.4768 31.3222 32.4387 31.1029 32.4387C30.8754 32.4387 30.6704 32.4803 30.4879 32.5636C30.3048 32.6462 30.1494 32.7617 30.0216 32.9102C29.8938 33.0581 29.7953 33.2344 29.7259 33.4392C29.6572 33.6433 29.6228 33.8666 29.6228 34.1091C29.6228 34.6522 29.7498 35.0665 30.0038 35.3521C30.2572 35.6371 30.6176 35.7795 31.085 35.7795C31.3287 35.7795 31.545 35.7368 31.7341 35.6512C31.9225 35.5661 32.0818 35.4494 32.2117 35.3009C32.3417 35.153 32.4402 34.9779 32.5074 34.7755C32.5745 34.5738 32.6081 34.3561 32.6081 34.1226ZM34.9778 31.1858H41.0703V31.9061C41.0703 32.1217 41.0491 32.2959 41.0069 32.4288C40.9641 32.5611 40.9224 32.6722 40.8818 32.762L37.5488 40.3598C37.4799 40.5167 37.3825 40.6502 37.2564 40.7603C37.1307 40.8705 36.9601 40.9256 36.7446 40.9256H35.6544L39.0662 33.4823C39.208 33.1769 39.3665 32.9144 39.5414 32.6947H35.3254C35.2317 32.6947 35.1504 32.6563 35.0817 32.5797C35.0124 32.5036 34.9778 32.4139 34.9778 32.3103V31.1858ZM44.9938 41.0334C44.5388 41.0334 44.1239 40.966 43.7485 40.8312C43.3726 40.6965 43.0507 40.5056 42.7826 40.2583C42.5145 40.0117 42.3063 39.7132 42.158 39.363C42.0095 39.0127 41.9354 38.622 41.9354 38.1909C41.9354 37.6162 42.0634 37.13 42.3196 36.7324C42.5752 36.3349 42.9733 36.0397 43.5138 35.847C43.0832 35.6494 42.7613 35.3686 42.5479 35.0046C42.3345 34.6411 42.2278 34.2034 42.2278 33.6915C42.2278 33.3233 42.2961 32.9797 42.4326 32.6606C42.5684 32.3421 42.7583 32.0648 43.002 31.8289C43.2457 31.593 43.537 31.4089 43.876 31.2766C44.215 31.1443 44.5876 31.0781 44.9938 31.0781C45.4 31.0781 45.7728 31.1443 46.1124 31.2766C46.4514 31.4089 46.7427 31.593 46.9865 31.8289C47.2302 32.0648 47.4199 32.3421 47.5559 32.6606C47.6918 32.9797 47.7598 33.3233 47.7598 33.6915C47.7598 34.2034 47.6523 34.6411 47.4373 35.0046C47.2218 35.3686 46.9009 35.6494 46.4747 35.847C47.0146 36.0397 47.4127 36.3349 47.6689 36.7324C47.9245 37.13 48.0523 37.6162 48.0523 38.1909C48.0523 38.622 47.9783 39.0127 47.8305 39.363C47.6821 39.7132 47.4738 40.0117 47.2058 40.2583C46.9377 40.5056 46.6157 40.6965 46.2399 40.8312C45.8641 40.966 45.4487 41.0334 44.9938 41.0334ZM44.9938 39.733C45.2418 39.733 45.4593 39.6937 45.6462 39.6152C45.8329 39.5368 45.9903 39.4279 46.1181 39.2884C46.2459 39.1495 46.3423 38.9833 46.4072 38.79C46.4723 38.5972 46.5047 38.3885 46.5047 38.164C46.5047 37.6293 46.3707 37.2252 46.1026 36.9516C45.8346 36.6774 45.465 36.5402 44.9938 36.5402C44.5227 36.5402 44.1531 36.6774 43.885 36.9516C43.6169 37.2252 43.4829 37.6293 43.4829 38.164C43.4829 38.3885 43.5154 38.5972 43.5803 38.79C43.6454 38.9833 43.742 39.1495 43.8703 39.2884C43.9981 39.4279 44.1555 39.5368 44.3423 39.6152C44.5292 39.6937 44.7463 39.733 44.9938 39.733ZM44.9938 35.2336C45.2375 35.2336 45.4427 35.191 45.6095 35.106C45.7758 35.0204 45.9098 34.907 46.0117 34.7657C46.1129 34.6244 46.185 34.4627 46.2278 34.2807C46.2706 34.0987 46.2919 33.9113 46.2919 33.7185C46.2919 33.5341 46.2654 33.3589 46.2123 33.193C46.1597 33.0266 46.0807 32.8796 45.9751 32.7521C45.8695 32.624 45.7354 32.5217 45.573 32.445C45.4105 32.369 45.2174 32.3309 44.9938 32.3309C44.7707 32.3309 44.5779 32.369 44.4155 32.445C44.2529 32.5217 44.1178 32.624 44.0101 32.7521C43.9023 32.8796 43.8232 33.0266 43.7729 33.193C43.722 33.3589 43.6966 33.5341 43.6966 33.7185C43.6966 33.9113 43.7179 34.0987 43.7607 34.2807C43.8029 34.4627 43.875 34.6244 43.9768 34.7657C44.0781 34.907 44.2121 35.0204 44.3789 35.106C44.5452 35.191 44.75 35.2336 44.9938 35.2336ZM11.6864 36.7226V36.049L16.5117 33.2667V34.4523C16.5117 34.5421 16.4914 34.624 16.4508 34.6983C16.4102 34.7725 16.343 34.8366 16.2493 34.8904L14.0381 36.1433C13.9445 36.1972 13.8459 36.2433 13.7424 36.2816C13.639 36.3194 13.5282 36.354 13.4102 36.3858C13.5282 36.4169 13.639 36.4516 13.7424 36.4899C13.8459 36.5282 13.9445 36.5744 14.0381 36.6283L16.2493 37.8874C16.343 37.9413 16.4102 38.0053 16.4508 38.0796C16.4914 38.1538 16.5117 38.2359 16.5117 38.3257V39.5111L11.6864 36.7226Z" fill="#324A32"/>
</svg>
