<svg width="62" height="59" viewBox="0 0 62 59" fill="none" xmlns="http://www.w3.org/2000/svg">
<path d="M39.9783 6.2793C41.0912 6.2793 42.9125 6.2802 46.2519 6.2793" stroke="black" stroke-width="3" stroke-miterlimit="3"/>
<path d="M27.6409 6.2793C28.614 6.2793 31.1194 6.2802 34.0389 6.2793" stroke="black" stroke-width="3" stroke-miterlimit="3"/>
<path d="M15.3976 6.2793C16.404 6.2793 18.6282 6.2802 21.6477 6.2793" stroke="black" stroke-width="3" stroke-miterlimit="3"/>
<path d="M52.8812 6.125C54.3515 6.125 55.2346 6.13587 57.0957 6.13497C58.804 6.13497 60.1915 7.66794 60.1915 9.55661L59.951 53.0337C59.9404 54.9484 58.5262 56.5056 56.7943 56.5092L5.24667 56.6125C3.53751 56.6125 2.15088 55.0795 2.15088 53.1909V9.55661C2.15088 7.66794 3.53751 6.13399 5.24667 6.13399C6.17679 6.13399 6.39371 6.13407 9.10206 6.13497" stroke="black" stroke-width="3" stroke-miterlimit="3"/>
<path d="M2.47595 17.4004H59.8642" stroke="black" stroke-width="3" stroke-miterlimit="3" stroke-linecap="square"/>
<path d="M12.2711 2V10.6287" stroke="black" stroke-width="3" stroke-miterlimit="3" stroke-linecap="round"/>
<path d="M24.6536 2V10.6287" stroke="black" stroke-width="3" stroke-miterlimit="3" stroke-linecap="round"/>
<path d="M37.035 2V10.6287" stroke="black" stroke-width="3" stroke-miterlimit="3" stroke-linecap="round"/>
<path d="M49.4166 2V10.6287" stroke="black" stroke-width="3" stroke-miterlimit="3" stroke-linecap="round"/>
<path fill-rule="evenodd" clip-rule="evenodd" d="M18.5382 50.8979V49.6521H20.3236V43.9736C20.3236 43.7538 20.3297 43.5228 20.3415 43.2803L19.0743 44.4523C19.0217 44.5014 18.9678 44.5349 18.9126 44.5528C18.8579 44.5708 18.8043 44.5798 18.7518 44.5798C18.6705 44.5798 18.5963 44.5607 18.5292 44.5224C18.4621 44.4847 18.4123 44.4409 18.3797 44.3913L17.9045 43.671L20.5917 41.1446H21.8281V49.6521H23.4122V50.8979H18.5382ZM27.196 47.0118C26.8912 47.0118 26.5924 46.9534 26.3 46.8366C26.0075 46.7199 25.7465 46.5436 25.5169 46.3077C25.2878 46.0718 25.1043 45.7799 24.9661 45.4321C24.828 45.0842 24.759 44.6768 24.759 44.2098C24.759 43.7739 24.8321 43.3653 24.9783 42.9839C25.1245 42.602 25.3295 42.2672 25.5933 41.9798C25.8576 41.6925 26.1743 41.4659 26.5436 41.3C26.9136 41.1336 27.3219 41.0503 27.7686 41.0503C28.2193 41.0503 28.6244 41.1291 28.9839 41.2866C29.3436 41.4434 29.6501 41.6634 29.9036 41.9466C30.1576 42.2292 30.3525 42.5681 30.4884 42.9632C30.6248 43.3584 30.6931 43.7919 30.6931 44.2636C30.6931 44.5642 30.6695 44.8492 30.6224 45.1186C30.5758 45.3881 30.509 45.6473 30.4218 45.8964C30.3346 46.146 30.23 46.3886 30.1082 46.6239C29.9863 46.8597 29.8501 47.0968 29.6996 47.3351L27.6834 50.5144C27.614 50.6221 27.5115 50.7128 27.3755 50.7865C27.2396 50.8607 27.0842 50.8979 26.9092 50.8979H25.5267L28.2618 47.1196C28.3312 47.025 28.3961 46.9328 28.4568 46.843C28.5179 46.7532 28.5769 46.6633 28.6338 46.5735C28.4307 46.7172 28.2074 46.8262 27.9636 46.9004C27.72 46.9747 27.4641 47.0118 27.196 47.0118ZM29.2488 44.0948C29.2488 43.8302 29.2122 43.5934 29.1391 43.3844C29.066 43.1755 28.9626 42.9992 28.8288 42.8555C28.6945 42.7118 28.5349 42.602 28.3503 42.5259C28.1656 42.4493 27.9636 42.4109 27.7443 42.4109C27.5169 42.4109 27.3117 42.4526 27.1286 42.5358C26.9461 42.619 26.7907 42.7345 26.6623 42.8824C26.5345 43.0309 26.4362 43.2072 26.3674 43.4114C26.2981 43.6156 26.2634 43.8388 26.2634 44.0813C26.2634 44.625 26.3904 45.0393 26.6444 45.3243C26.8984 45.6093 27.2588 45.7518 27.7257 45.7518C27.9693 45.7518 28.1857 45.7093 28.3747 45.6243C28.5637 45.5386 28.7232 45.4219 28.8532 45.274C28.9831 45.1255 29.0815 44.9504 29.148 44.7486C29.2152 44.5463 29.2488 44.3283 29.2488 44.0948ZM34.2634 47.0118C33.9585 47.0118 33.6598 46.9534 33.3674 46.8366C33.0748 46.7199 32.8139 46.5436 32.5842 46.3077C32.3552 46.0718 32.1716 45.7799 32.0335 45.4321C31.8953 45.0842 31.8263 44.6768 31.8263 44.2098C31.8263 43.7739 31.8994 43.3653 32.0457 42.9839C32.1918 42.602 32.3969 42.2672 32.6606 41.9798C32.9249 41.6925 33.2416 41.4659 33.611 41.3C33.9809 41.1336 34.3892 41.0503 34.836 41.0503C35.2866 41.0503 35.6917 41.1291 36.0513 41.2866C36.4109 41.4434 36.7173 41.6634 36.9708 41.9466C37.2248 42.2292 37.4198 42.5681 37.5557 42.9632C37.6922 43.3584 37.7604 43.7919 37.7604 44.2636C37.7604 44.5642 37.7368 44.8492 37.6897 45.1186C37.6431 45.3881 37.5763 45.6473 37.4891 45.8964C37.4019 46.146 37.2974 46.3886 37.1756 46.6239C37.0536 46.8597 36.9175 47.0968 36.7669 47.3351L34.7507 50.5144C34.6814 50.6221 34.5788 50.7128 34.4428 50.7865C34.3069 50.8607 34.1515 50.8979 33.9766 50.8979H32.594L35.3291 47.1196C35.3984 47.025 35.4634 46.9328 35.5241 46.843C35.5852 46.7532 35.6443 46.6633 35.7011 46.5735C35.4981 46.7172 35.2746 46.8262 35.031 46.9004C34.7873 46.9747 34.5314 47.0118 34.2634 47.0118ZM36.3161 44.0948C36.3161 43.8302 36.2796 43.5934 36.2065 43.3844C36.1333 43.1755 36.0299 42.9992 35.8961 42.8555C35.7618 42.7118 35.6023 42.602 35.4176 42.5259C35.2329 42.4493 35.031 42.4109 34.8117 42.4109C34.5842 42.4109 34.379 42.4526 34.1959 42.5358C34.0134 42.619 33.858 42.7345 33.7296 42.8824C33.6018 43.0309 33.5035 43.2072 33.4347 43.4114C33.3655 43.6156 33.3308 43.8388 33.3308 44.0813C33.3308 44.625 33.4578 45.0393 33.7118 45.3243C33.9658 45.6093 34.3261 45.7518 34.793 45.7518C35.0367 45.7518 35.253 45.7093 35.4421 45.6243C35.631 45.5386 35.7905 45.4219 35.9205 45.274C36.0504 45.1255 36.1488 44.9504 36.2153 44.7486C36.2825 44.5463 36.3161 44.3283 36.3161 44.0948ZM43.8407 41.1518V47.2274H44.9496V48.1901C44.9496 48.2799 44.9231 48.3574 44.87 48.4226C44.8174 48.4879 44.7403 48.5205 44.6384 48.5205H43.8407V50.8979H42.5247V48.5205H38.8083C38.7066 48.5205 38.6171 48.4856 38.5402 48.4155C38.4628 48.3461 38.414 48.2599 38.3941 48.1569L38.2414 47.3144L42.4151 41.1518H43.8407ZM42.5247 47.2274V44.041C42.5247 43.8973 42.5289 43.7424 42.537 43.5766C42.5451 43.4102 42.5592 43.2371 42.5792 43.0575L39.8441 47.2274H42.5247ZM18.5382 34.7324V33.4867H20.3236V27.8081C20.3236 27.5884 20.3297 27.3573 20.3415 27.1148L19.0743 28.2868C19.0217 28.3359 18.9678 28.3694 18.9126 28.3874C18.8579 28.4053 18.8043 28.4143 18.7518 28.4143C18.6705 28.4143 18.5963 28.3952 18.5292 28.3569C18.4621 28.3192 18.4123 28.2755 18.3797 28.2258L17.9045 27.5055L20.5917 24.9791H21.8281V33.4867H23.4122V34.7324H18.5382ZM27.196 30.8463C26.8912 30.8463 26.5924 30.7879 26.3 30.6712C26.0075 30.5544 25.7465 30.3781 25.5169 30.1422C25.2878 29.9063 25.1043 29.6144 24.9661 29.2666C24.828 28.9187 24.759 28.5113 24.759 28.0443C24.759 27.6085 24.8321 27.1998 24.9783 26.8185C25.1245 26.4365 25.3295 26.1018 25.5933 25.8144C25.8576 25.527 26.1743 25.3004 26.5436 25.1346C26.9136 24.9681 27.3219 24.8848 27.7686 24.8848C28.2193 24.8848 28.6244 24.9636 28.9839 25.1211C29.3436 25.2779 29.6501 25.498 29.9036 25.7812C30.1576 26.0637 30.3525 26.4026 30.4884 26.7977C30.6248 27.1929 30.6931 27.6264 30.6931 28.0982C30.6931 28.3987 30.6695 28.6837 30.6224 28.9532C30.5758 29.2226 30.509 29.4818 30.4218 29.7309C30.3346 29.9805 30.23 30.2231 30.1082 30.4584C29.9863 30.6943 29.8501 30.9314 29.6996 31.1696L27.6834 34.3489C27.614 34.4567 27.5115 34.5473 27.3755 34.621C27.2396 34.6952 27.0842 34.7324 26.9092 34.7324H25.5267L28.2618 30.9541C28.3312 30.8595 28.3961 30.7673 28.4568 30.6775C28.5179 30.5877 28.5769 30.4979 28.6338 30.4081C28.4307 30.5517 28.2074 30.6607 27.9636 30.735C27.72 30.8092 27.4641 30.8463 27.196 30.8463ZM29.2488 27.9293C29.2488 27.6647 29.2122 27.4279 29.1391 27.2189C29.066 27.01 28.9626 26.8337 28.8288 26.69C28.6945 26.5463 28.5349 26.4365 28.3503 26.3604C28.1656 26.2838 27.9636 26.2454 27.7443 26.2454C27.5169 26.2454 27.3117 26.2871 27.1286 26.3703C26.9461 26.4535 26.7907 26.5691 26.6623 26.7169C26.5345 26.8654 26.4362 27.0417 26.3674 27.2459C26.2981 27.4501 26.2634 27.6734 26.2634 27.9158C26.2634 28.4595 26.3904 28.8738 26.6444 29.1588C26.8984 29.4438 27.2588 29.5863 27.7257 29.5863C27.9693 29.5863 28.1857 29.5438 28.3747 29.4588C28.5637 29.3732 28.7232 29.2564 28.8532 29.1085C28.9831 28.96 29.0815 28.7849 29.148 28.5832C29.2152 28.3808 29.2488 28.1628 29.2488 27.9293ZM31.6192 24.9926H37.7117V25.7137C37.7117 25.9293 37.6903 26.1032 37.6475 26.2356C37.6047 26.3679 37.563 26.4789 37.5224 26.5687L34.1902 34.1666C34.1209 34.324 34.0234 34.4575 33.8978 34.5671C33.7716 34.6772 33.601 34.7324 33.386 34.7324H32.295L35.7068 27.2899C35.8493 26.9845 36.0077 26.7217 36.182 26.5014H31.9661C31.8729 26.5014 31.7917 26.4633 31.7223 26.3873C31.6536 26.3107 31.6192 26.2209 31.6192 26.1179V24.9926ZM41.6352 34.8401C41.1803 34.8401 40.765 34.7727 40.3892 34.638C40.0133 34.5033 39.6913 34.3126 39.4233 34.0659C39.1552 33.8187 38.947 33.5199 38.7986 33.1696C38.6508 32.8194 38.5769 32.4288 38.5769 31.9977C38.5769 31.4229 38.7047 30.9367 38.9603 30.5392C39.2165 30.1422 39.6144 29.8471 40.1544 29.6537C39.7238 29.4561 39.4019 29.1756 39.1885 28.8122C38.9757 28.4482 38.8693 28.0102 38.8693 27.4983C38.8693 27.1301 38.9372 26.7867 39.0732 26.4682C39.2091 26.1491 39.3989 25.8716 39.6426 25.6357C39.8862 25.4004 40.1777 25.2163 40.5167 25.0834C40.8563 24.951 41.2291 24.8848 41.6352 24.8848C42.0415 24.8848 42.414 24.951 42.753 25.0834C43.0921 25.2163 43.3834 25.4004 43.6271 25.6357C43.8709 25.8716 44.0606 26.1491 44.1966 26.4682C44.3331 26.7867 44.4013 27.1301 44.4013 27.4983C44.4013 28.0102 44.2935 28.4482 44.078 28.8122C43.863 29.1756 43.5421 29.4561 43.1153 29.6537C43.6558 29.8471 44.0538 30.1422 44.3095 30.5392C44.5656 30.9367 44.6937 31.4229 44.6937 31.9977C44.6937 32.4288 44.6195 32.8194 44.4711 33.1696C44.3228 33.5199 44.1145 33.8187 43.8464 34.0659C43.5784 34.3126 43.2564 34.5033 42.8806 34.638C42.5053 34.7727 42.0901 34.8401 41.6352 34.8401ZM41.6352 33.5406C41.8827 33.5406 42.0999 33.501 42.2868 33.422C42.4735 33.3435 42.6309 33.235 42.7587 33.096C42.8871 32.9565 42.9838 32.7904 43.0487 32.5976C43.1138 32.4042 43.1462 32.1952 43.1462 31.9707C43.1462 31.4366 43.0122 31.0325 42.7441 30.7583C42.4761 30.4847 42.1064 30.3479 41.6352 30.3479C41.1641 30.3479 40.7945 30.4847 40.5264 30.7583C40.2584 31.0325 40.1243 31.4366 40.1243 31.9707C40.1243 32.1952 40.1568 32.4042 40.2218 32.5976C40.2868 32.7904 40.3832 32.9565 40.511 33.096C40.6388 33.235 40.7961 33.3435 40.983 33.422C41.1698 33.501 41.3872 33.5406 41.6352 33.5406ZM41.6352 29.0412C41.8789 29.0412 42.084 28.9983 42.2502 28.9127C42.417 28.8277 42.5511 28.7143 42.6523 28.5724C42.7541 28.4311 42.8261 28.2694 42.8684 28.0874C42.9112 27.906 42.9326 27.7186 42.9326 27.5252C42.9326 27.3414 42.9063 27.1662 42.8537 26.9998C42.8007 26.8339 42.7214 26.687 42.6157 26.5589C42.5102 26.4307 42.3761 26.3287 42.2137 26.2527C42.0512 26.176 41.8584 26.1377 41.6352 26.1377C41.4115 26.1377 41.2185 26.176 41.0561 26.2527C40.8936 26.3287 40.7585 26.4307 40.6508 26.5589C40.5435 26.687 40.4644 26.8339 40.4135 26.9998C40.3627 27.1662 40.3372 27.3414 40.3372 27.5252C40.3372 27.7186 40.3585 27.906 40.4013 28.0874C40.4441 28.2694 40.5162 28.4311 40.6174 28.5724C40.7192 28.7143 40.8533 28.8277 41.0195 28.9127C41.1863 28.9983 41.3916 29.0412 41.6352 29.0412Z" fill="#324A32"/>
</svg>
