<svg width="63" height="59" viewBox="0 0 63 59" fill="none" xmlns="http://www.w3.org/2000/svg">
<path fill-rule="evenodd" clip-rule="evenodd" d="M21.322 41.0503C21.7281 41.0503 22.0999 41.1165 22.4373 41.2488C22.7741 41.3818 23.0626 41.5694 23.3024 41.8119C23.5418 42.0544 23.7286 42.3462 23.863 42.6875C23.9967 43.0288 24.0636 43.4082 24.0636 43.8255C24.0636 44.1847 24.0159 44.517 23.9206 44.8223C23.8253 45.1277 23.6975 45.4195 23.5372 45.6979C23.3763 45.9763 23.1885 46.2458 22.9735 46.5062C22.7579 46.7667 22.5323 47.0316 22.2968 47.301L20.3106 49.5444C20.5056 49.4815 20.6965 49.433 20.8833 49.3989C21.0702 49.3654 21.2489 49.3486 21.4194 49.3486H23.6802C23.8426 49.3486 23.9716 49.3992 24.0669 49.5004C24.1622 49.6016 24.2099 49.735 24.2099 49.9009V50.8979H18.166V50.3454C18.166 50.2335 18.1875 50.1168 18.2302 49.9953C18.273 49.8743 18.341 49.7621 18.4341 49.6585L21.1092 46.6948C21.3322 46.4433 21.5324 46.2032 21.7095 45.9745C21.886 45.7452 22.0341 45.5182 22.1538 45.2937C22.2735 45.0692 22.365 44.8414 22.4284 44.6103C22.4912 44.3792 22.5226 44.1355 22.5226 43.8793C22.5226 43.6458 22.492 43.4404 22.4308 43.2632C22.3701 43.086 22.283 42.9367 22.1693 42.8151C22.0556 42.6942 21.9204 42.6031 21.7638 42.542C21.6074 42.4816 21.4316 42.4514 21.2367 42.4514C20.8755 42.4514 20.5781 42.5526 20.3447 42.7549C20.1107 42.9567 19.9472 43.2282 19.854 43.5695C19.8091 43.7401 19.742 43.8625 19.6526 43.9367C19.5632 44.011 19.4495 44.0481 19.3114 44.0481C19.2508 44.0481 19.1839 44.0413 19.1108 44.0275L18.3188 43.873C18.3794 43.406 18.4972 42.9962 18.6721 42.6435C18.8465 42.2909 19.0647 41.9966 19.3269 41.7607C19.589 41.5254 19.8896 41.3481 20.2286 41.229C20.5676 41.1099 20.932 41.0503 21.322 41.0503ZM31.4843 46.0285C31.4843 46.8768 31.4023 47.6141 31.2382 48.2403C31.0736 48.8672 30.8461 49.3848 30.5558 49.7931C30.265 50.2021 29.9216 50.5062 29.5257 50.7056C29.1299 50.9055 28.7023 51.0056 28.2431 51.0056C27.7843 51.0056 27.359 50.9055 26.9668 50.7056C26.5748 50.5062 26.2347 50.2021 25.9466 49.7931C25.6579 49.3848 25.4324 48.8672 25.2699 48.2403C25.1074 47.6141 25.0262 46.8768 25.0262 46.0285C25.0262 45.1753 25.1074 44.4364 25.2699 43.812C25.4324 43.1881 25.6579 42.6716 25.9466 42.2627C26.2347 41.8544 26.5748 41.5502 26.9668 41.3503C27.359 41.1503 27.7843 41.0503 28.2431 41.0503C28.7023 41.0503 29.1299 41.1503 29.5257 41.3503C29.9216 41.5502 30.265 41.8544 30.5558 42.2627C30.8461 42.6716 31.0736 43.1881 31.2382 43.812C31.4023 44.4364 31.4843 45.1753 31.4843 46.0285ZM29.9311 46.0285C29.9311 45.3232 29.8843 44.7393 29.7906 44.2771C29.6974 43.8143 29.5726 43.4461 29.4161 43.1725C29.2595 42.8983 29.0798 42.7061 28.8766 42.596C28.6736 42.4864 28.4624 42.4316 28.2431 42.4316C28.0281 42.4316 27.8202 42.4864 27.6192 42.596C27.4177 42.7061 27.2398 42.8983 27.0855 43.1725C26.9312 43.4461 26.8085 43.8143 26.7176 44.2771C26.626 44.7393 26.5802 45.3232 26.5802 46.0285C26.5802 46.7332 26.626 47.3169 26.7176 47.7797C26.8085 48.2419 26.9312 48.6101 27.0855 48.8843C27.2398 49.1579 27.4177 49.3498 27.6192 49.46C27.8202 49.5701 28.0281 49.6252 28.2431 49.6252C28.4624 49.6252 28.6736 49.5701 28.8766 49.46C29.0798 49.3498 29.2595 49.1579 29.4161 48.8843C29.5726 48.6101 29.6974 48.2419 29.7906 47.7797C29.8843 47.3169 29.9311 46.7332 29.9311 46.0285ZM38.5516 46.0285C38.5516 46.8768 38.4696 47.6141 38.3055 48.2403C38.1409 48.8672 37.9134 49.3848 37.6231 49.7931C37.3323 50.2021 36.989 50.5062 36.593 50.7056C36.1972 50.9055 35.7697 51.0056 35.3104 51.0056C34.8517 51.0056 34.4263 50.9055 34.0342 50.7056C33.6421 50.5062 33.302 50.2021 33.0139 49.7931C32.7253 49.3848 32.4997 48.8672 32.3373 48.2403C32.1748 47.6141 32.0936 46.8768 32.0936 46.0285C32.0936 45.1753 32.1748 44.4364 32.3373 43.812C32.4997 43.1881 32.7253 42.6716 33.0139 42.2627C33.302 41.8544 33.6421 41.5502 34.0342 41.3503C34.4263 41.1503 34.8517 41.0503 35.3104 41.0503C35.7697 41.0503 36.1972 41.1503 36.593 41.3503C36.989 41.5502 37.3323 41.8544 37.6231 42.2627C37.9134 42.6716 38.1409 43.1881 38.3055 43.812C38.4696 44.4364 38.5516 45.1753 38.5516 46.0285ZM36.9984 46.0285C36.9984 45.3232 36.9516 44.7393 36.8579 44.2771C36.7647 43.8143 36.6399 43.4461 36.4834 43.1725C36.3269 42.8983 36.1471 42.7061 35.944 42.596C35.7409 42.4864 35.5298 42.4316 35.3104 42.4316C35.0954 42.4316 34.8875 42.4864 34.6866 42.596C34.4851 42.7061 34.3071 42.8983 34.1528 43.1725C33.9984 43.4461 33.8758 43.8143 33.7848 44.2771C33.6933 44.7393 33.6476 45.3232 33.6476 46.0285C33.6476 46.7332 33.6933 47.3169 33.7848 47.7797C33.8758 48.2419 33.9984 48.6101 34.1528 48.8843C34.3071 49.1579 34.4851 49.3498 34.6866 49.46C34.8875 49.5701 35.0954 49.6252 35.3104 49.6252C35.5298 49.6252 35.7409 49.5701 35.944 49.46C36.1471 49.3498 36.3269 49.1579 36.4834 48.8843C36.6399 48.6101 36.7647 48.2419 36.8579 47.7797C36.9516 47.3169 36.9984 46.7332 36.9984 46.0285ZM40.4955 50.8979V49.6521H42.2802V43.9736C42.2802 43.7538 42.2865 43.5228 42.299 43.2803L41.0317 44.4523C40.9786 44.5014 40.9247 44.5349 40.8701 44.5529C40.8154 44.5708 40.7614 44.5798 40.7083 44.5798C40.6271 44.5798 40.5532 44.5607 40.4866 44.5224C40.4194 44.4847 40.3696 44.441 40.3371 44.3913L39.8619 43.671L42.5483 41.1446H43.7855V49.6521H45.3695V50.8979H40.4955ZM19.2936 34.7324V33.4867H21.0783V27.8081C21.0783 27.5884 21.0845 27.3573 21.0969 27.1148L19.8297 28.2868C19.7767 28.3359 19.7227 28.3694 19.6681 28.3874C19.6133 28.4053 19.5595 28.4143 19.5064 28.4143C19.4252 28.4143 19.3512 28.3952 19.2846 28.3569C19.2175 28.3192 19.1677 28.2755 19.1351 28.2258L18.66 27.5055L21.3464 24.9791H22.5835V33.4867H24.1676V34.7324H19.2936ZM27.9507 30.8463C27.6463 30.8463 27.3478 30.7879 27.0554 30.6712C26.763 30.5544 26.5019 30.3781 26.2723 30.1422C26.0427 29.9063 25.8589 29.6144 25.7208 29.2666C25.5826 28.9187 25.5136 28.5113 25.5136 28.0443C25.5136 27.6085 25.5867 27.1998 25.733 26.8185C25.8792 26.4365 26.0844 26.1018 26.3487 25.8144C26.6124 25.527 26.9293 25.3004 27.2992 25.1346C27.6685 24.9681 28.0765 24.8848 28.5233 24.8848C28.9744 24.8848 29.3796 24.9636 29.7386 25.1211C30.0982 25.2779 30.405 25.498 30.659 25.7812C30.913 26.0637 31.1079 26.4026 31.2439 26.7977C31.3797 27.1929 31.4478 27.6264 31.4478 28.0982C31.4478 28.3987 31.4245 28.6837 31.3779 28.9532C31.3313 29.2226 31.2644 29.4818 31.1772 29.7309C31.0895 29.9805 30.9847 30.2231 30.8629 30.4584C30.741 30.6943 30.6051 30.9314 30.455 31.1696L28.438 34.3489C28.3693 34.4567 28.2669 34.5473 28.131 34.621C27.9945 34.6952 27.8391 34.7324 27.6647 34.7324H26.2813L29.0172 30.9541C29.086 30.8595 29.151 30.7673 29.2122 30.6775C29.2728 30.5877 29.3316 30.4979 29.3884 30.4081C29.1854 30.5517 28.9619 30.6607 28.7183 30.735C28.4746 30.8092 28.2187 30.8463 27.9507 30.8463ZM30.0042 27.9293C30.0042 27.6647 29.9677 27.4279 29.8945 27.2189C29.8214 27.01 29.7177 26.8337 29.5834 26.69C29.4497 26.5463 29.2905 26.4365 29.1058 26.3604C28.9206 26.2838 28.7183 26.2454 28.499 26.2454C28.2715 26.2454 28.0666 26.2871 27.884 26.3703C27.701 26.4535 27.5456 26.5691 27.4177 26.7169C27.2899 26.8654 27.1913 27.0417 27.1221 27.2459C27.0533 27.4501 27.0188 27.6734 27.0188 27.9159C27.0188 28.4595 27.1458 28.8738 27.3998 29.1588C27.6533 29.4438 28.0137 29.5863 28.4811 29.5863C28.7248 29.5863 28.9409 29.5438 29.1294 29.4588C29.3183 29.3732 29.4778 29.2564 29.6078 29.1085C29.7378 28.96 29.8363 28.7849 29.9035 28.5832C29.9707 28.3808 30.0042 28.1628 30.0042 27.9293ZM35.0179 30.8463C34.7136 30.8463 34.4152 30.7879 34.1228 30.6712C33.8304 30.5544 33.5693 30.3781 33.3397 30.1422C33.1101 29.9063 32.9262 29.6144 32.7881 29.2666C32.65 28.9187 32.5809 28.5113 32.5809 28.0443C32.5809 27.6085 32.654 27.1998 32.8003 26.8185C32.9465 26.4365 33.1518 26.1018 33.416 25.8144C33.6798 25.527 33.9966 25.3004 34.3665 25.1346C34.7358 24.9681 35.1439 24.8848 35.5906 24.8848C36.0417 24.8848 36.4471 24.9636 36.8067 25.1211C37.1658 25.2779 37.4723 25.498 37.7263 25.7812C37.9803 26.0637 38.1752 26.4026 38.3112 26.7977C38.4471 27.1929 38.5151 27.6264 38.5151 28.0982C38.5151 28.3987 38.4917 28.6837 38.4451 28.9532C38.3986 29.2226 38.3318 29.4818 38.2446 29.7309C38.1569 29.9805 38.052 30.2231 37.9302 30.4584C37.8084 30.6943 37.6724 30.9314 37.5223 31.1696L35.5054 34.3489C35.4366 34.4567 35.3342 34.5473 35.1984 34.621C35.0619 34.6952 34.9064 34.7324 34.732 34.7324H33.3486L36.0845 30.9541C36.1533 30.8595 36.2183 30.7673 36.2795 30.6775C36.3402 30.5877 36.3989 30.4979 36.4558 30.4081C36.2527 30.5517 36.0293 30.6607 35.7856 30.735C35.5419 30.8092 35.286 30.8463 35.0179 30.8463ZM37.0715 27.9293C37.0715 27.6647 37.035 27.4279 36.9619 27.2189C36.8887 27.01 36.7851 26.8337 36.6508 26.69C36.517 26.5463 36.3578 26.4365 36.1731 26.3604C35.9878 26.2838 35.7857 26.2454 35.5663 26.2454C35.3388 26.2454 35.1339 26.2871 34.9513 26.3703C34.7683 26.4535 34.6129 26.5691 34.4851 26.7169C34.3572 26.8654 34.2587 27.0417 34.1894 27.2459C34.1206 27.4501 34.0862 27.6734 34.0862 27.9159C34.0862 28.4595 34.2132 28.8738 34.4672 29.1588C34.7207 29.4438 35.081 29.5863 35.5484 29.5863C35.7921 29.5863 36.0084 29.5438 36.1975 29.4588C36.3859 29.3732 36.5452 29.2564 36.6752 29.1085C36.8052 28.96 36.9037 28.7849 36.9708 28.5832C37.038 28.3808 37.0715 28.1628 37.0715 27.9293ZM44.8822 24.9926V25.7004C44.8822 25.938 44.8142 26.131 44.6783 26.2795C44.5418 26.4274 44.3151 26.5014 43.9983 26.5014H41.5735L41.2567 28.5356C41.6547 28.4458 42.0184 28.4009 42.3476 28.4009C42.8107 28.4009 43.2179 28.4772 43.5694 28.6299C43.9204 28.7825 44.2158 28.9935 44.4557 29.263C44.695 29.5324 44.8757 29.848 44.9975 30.2096C45.1193 30.5713 45.1803 30.9606 45.1803 31.3779C45.1803 31.8946 45.0983 32.3662 44.9342 32.7925C44.7696 33.2194 44.541 33.5843 44.2486 33.8872C43.9561 34.1902 43.6098 34.4248 43.2095 34.5913C42.8094 34.7571 42.3737 34.8401 41.9025 34.8401C41.6263 34.8401 41.3645 34.8086 41.1169 34.7458C40.8689 34.6829 40.6363 34.5988 40.4192 34.4934C40.202 34.388 40.0011 34.2669 39.8165 34.1297C39.6312 33.9926 39.4655 33.8477 39.3193 33.6951L39.7823 32.9883C39.8798 32.8356 40.0098 32.7593 40.1722 32.7593C40.2741 32.7593 40.3767 32.7952 40.48 32.867C40.5835 32.9389 40.7044 33.0173 40.8424 33.1023C40.9805 33.1879 41.1411 33.2667 41.3241 33.3386C41.5066 33.4104 41.7278 33.4463 41.9878 33.4463C42.264 33.4463 42.5077 33.3969 42.7189 33.2981C42.9301 33.1993 43.1059 33.061 43.2461 32.8832C43.3864 32.7059 43.492 32.4949 43.5629 32.25C43.6338 32.0058 43.6693 31.7399 43.6693 31.4525C43.6693 30.9226 43.5305 30.5084 43.2526 30.2096C42.9743 29.9109 42.5648 29.7615 42.0243 29.7615C41.5981 29.7615 41.1697 29.8468 40.7393 30.0174L39.801 29.721L40.5321 24.9926H44.8822Z" fill="#324A32"/>
<path d="M40.3254 6.2793C41.4383 6.2793 43.2588 6.2802 46.5983 6.2793" stroke="black" stroke-width="3" stroke-miterlimit="3"/>
<path d="M27.9877 6.2793C28.9617 6.2793 31.4669 6.2802 34.3856 6.2793" stroke="black" stroke-width="3" stroke-miterlimit="3"/>
<path d="M15.7444 6.2793C16.7508 6.2793 18.9758 6.2802 21.9953 6.2793" stroke="black" stroke-width="3" stroke-miterlimit="3"/>
<path d="M53.2279 6.125C54.6982 6.125 55.5812 6.13587 57.4431 6.13497C59.1507 6.13497 60.5389 7.66794 60.5389 9.55661L60.2977 53.0337C60.2871 54.9484 58.8729 56.5056 57.1409 56.5092L5.59335 56.6125C3.88419 56.6125 2.49756 55.0795 2.49756 53.1909V9.55661C2.49756 7.66794 3.88419 6.13399 5.59335 6.13399C6.52347 6.13399 6.74039 6.13407 9.44876 6.13497" stroke="black" stroke-width="3" stroke-miterlimit="3"/>
<path d="M2.82263 17.4004H60.2118" stroke="black" stroke-width="3" stroke-miterlimit="3" stroke-linecap="square"/>
<path d="M12.6178 2V10.6287" stroke="black" stroke-width="3" stroke-miterlimit="3" stroke-linecap="round"/>
<path d="M25.0002 2V10.6287" stroke="black" stroke-width="3" stroke-miterlimit="3" stroke-linecap="round"/>
<path d="M37.3827 2V10.6287" stroke="black" stroke-width="3" stroke-miterlimit="3" stroke-linecap="round"/>
<path d="M49.7642 2V10.6287" stroke="black" stroke-width="3" stroke-miterlimit="3" stroke-linecap="round"/>
</svg>
