<svg width="62" height="59" viewBox="0 0 62 59" fill="none" xmlns="http://www.w3.org/2000/svg">
<path fill-rule="evenodd" clip-rule="evenodd" d="M19.8962 40.1518C20.3025 40.1518 20.6739 40.218 21.0108 40.3503C21.3482 40.4832 21.6365 40.6709 21.876 40.9134C22.1158 41.1558 22.3026 41.4477 22.4364 41.789C22.5707 42.1302 22.6378 42.5096 22.6378 42.9269C22.6378 43.2862 22.5903 43.6184 22.4949 43.9238C22.399 44.2291 22.271 44.521 22.1107 44.7994C21.9504 45.0778 21.7624 45.3472 21.5469 45.6077C21.3319 45.8681 21.1067 46.1331 20.871 46.4025L18.8849 48.6458C19.0798 48.583 19.2708 48.5345 19.4576 48.5004C19.6444 48.4668 19.8232 48.45 19.9937 48.45H22.2537C22.4161 48.45 22.5453 48.5007 22.6412 48.6019C22.7364 48.7031 22.7841 48.8365 22.7841 49.0024V49.9993H16.7404V49.4469C16.7404 49.3349 16.7617 49.2183 16.8045 49.0967C16.8467 48.9758 16.9147 48.8635 17.0084 48.76L19.6826 45.7963C19.9063 45.5448 20.1064 45.3047 20.2829 45.076C20.4595 44.8467 20.6078 44.6197 20.728 44.3952C20.8478 44.1707 20.9391 43.9429 21.0018 43.7118C21.0647 43.4807 21.0961 43.237 21.0961 42.9808C21.0961 42.7473 21.0657 42.5419 21.0051 42.3646C20.9439 42.1874 20.8564 42.0381 20.7427 41.9166C20.629 41.7956 20.4941 41.7046 20.3382 41.6435C20.1816 41.583 20.006 41.5528 19.8109 41.5528C19.4492 41.5528 19.1516 41.654 18.9182 41.8564C18.6848 42.0582 18.5213 42.3297 18.4276 42.6709C18.3831 42.8416 18.3162 42.964 18.2269 43.0382C18.1376 43.1124 18.0239 43.1496 17.8858 43.1496C17.8245 43.1496 17.7574 43.1427 17.6843 43.129L16.8922 42.9745C16.9535 42.5075 17.0712 42.0977 17.2456 41.745C17.4206 41.3924 17.639 41.0981 17.9011 40.8622C18.1627 40.6269 18.4633 40.4496 18.8028 40.3305C19.1419 40.2113 19.5063 40.1518 19.8962 40.1518ZM30.0585 45.1299C30.0585 45.9783 29.9762 46.7155 29.8116 47.3418C29.647 47.9687 29.4196 48.4863 29.1292 48.8946C28.839 49.3035 28.4959 49.6077 28.1 49.807C27.7036 50.007 27.2761 50.1071 26.8174 50.1071C26.3581 50.1071 25.9327 50.007 25.5412 49.807C25.1491 49.6077 24.8087 49.3035 24.5201 48.8946C24.232 48.4863 24.0067 47.9687 23.8442 47.3418C23.6818 46.7155 23.6005 45.9783 23.6005 45.1299C23.6005 44.2767 23.6818 43.5379 23.8442 42.9134C24.0067 42.2896 24.232 41.7731 24.5201 41.3642C24.8087 40.9558 25.1491 40.6517 25.5412 40.4517C25.9327 40.2517 26.3581 40.1518 26.8174 40.1518C27.2761 40.1518 27.7036 40.2517 28.1 40.4517C28.4959 40.6517 28.839 40.9558 29.1292 41.3642C29.4196 41.7731 29.647 42.2896 29.8116 42.9134C29.9762 43.5379 30.0585 44.2767 30.0585 45.1299ZM28.5046 45.1299C28.5046 44.4246 28.458 43.8408 28.3648 43.3786C28.2711 42.9158 28.1463 42.5476 27.9904 42.274C27.8339 41.9998 27.6541 41.8076 27.451 41.6974C27.2478 41.5879 27.0367 41.5331 26.8174 41.5331C26.6018 41.5331 26.3936 41.5879 26.1927 41.6974C25.9918 41.8076 25.8142 41.9998 25.6598 42.274C25.5055 42.5476 25.3825 42.9158 25.291 43.3786C25.1995 43.8408 25.1537 44.4246 25.1537 45.1299C25.1537 45.8346 25.1995 46.4183 25.291 46.8811C25.3825 47.3434 25.5055 47.7116 25.6598 47.9858C25.8142 48.2594 25.9918 48.4513 26.1927 48.5614C26.3936 48.6716 26.6018 48.7266 26.8174 48.7266C27.0367 48.7266 27.2478 48.6716 27.451 48.5614C27.6541 48.4513 27.8339 48.2594 27.9904 47.9858C28.1463 47.7116 28.2711 47.3434 28.3648 46.8811C28.458 46.4183 28.5046 45.8346 28.5046 45.1299ZM32.0017 49.9993V48.7536H33.7873V43.075C33.7873 42.8553 33.7931 42.6242 33.8051 42.3817L32.5378 43.5538C32.4853 43.6029 32.4317 43.6364 32.377 43.6543C32.3218 43.6723 32.2678 43.6813 32.2154 43.6813C32.1342 43.6813 32.0599 43.6622 31.9928 43.6238C31.9256 43.5861 31.8758 43.5424 31.8433 43.4927L31.368 42.7725L34.0553 40.2461H35.2917V48.7536H36.8758V49.9993H32.0017ZM40.6596 46.1133C40.3546 46.1133 40.0561 46.0549 39.7635 45.9381C39.4711 45.8214 39.2103 45.645 38.9813 45.4092C38.7516 45.1733 38.5678 44.8814 38.4297 44.5335C38.2916 44.1857 38.2226 43.7783 38.2226 43.3113C38.2226 42.8754 38.2957 42.4668 38.4419 42.0854C38.5881 41.7034 38.7931 41.3687 39.0568 41.0813C39.3211 40.7939 39.6379 40.5674 40.0073 40.4015C40.3772 40.2351 40.7855 40.1518 41.2323 40.1518C41.6828 40.1518 42.0879 40.2306 42.4475 40.388C42.8071 40.5449 43.1139 40.7649 43.3679 41.0481C43.6213 41.3307 43.8163 41.6695 43.9527 42.0647C44.0887 42.4598 44.1566 42.8933 44.1566 43.3651C44.1566 43.6657 44.1334 43.9507 44.0868 44.2201C44.0397 44.4895 43.9725 44.7488 43.8854 44.9978C43.7982 45.2475 43.6937 45.49 43.5718 45.7253C43.4499 45.9612 43.3138 46.1983 43.1632 46.4366L41.147 49.6158C41.0776 49.7236 40.975 49.8143 40.8391 49.8879C40.7031 49.9622 40.5478 49.9993 40.3728 49.9993H38.9902L41.7254 46.2211C41.7946 46.1265 41.8597 46.0343 41.9203 45.9445C41.9815 45.8547 42.0406 45.7648 42.0974 45.675C41.8943 45.8187 41.6709 45.9277 41.4272 46.0019C41.1835 46.0762 40.9277 46.1133 40.6596 46.1133ZM42.7124 43.1963C42.7124 42.9317 42.6758 42.6948 42.6026 42.4859C42.5296 42.2769 42.4261 42.1006 42.2924 41.9569C42.1581 41.8132 41.9986 41.7034 41.8139 41.6274C41.6292 41.5507 41.4272 41.5124 41.2079 41.5124C40.9804 41.5124 40.7752 41.554 40.5922 41.6372C40.4096 41.7205 40.2544 41.836 40.1267 41.9839C39.9983 42.1324 39.8998 42.3087 39.831 42.5129C39.7617 42.717 39.727 42.9403 39.727 43.1828C39.727 43.7264 39.854 44.1408 40.108 44.4258C40.362 44.7108 40.7224 44.8532 41.1892 44.8532C41.4329 44.8532 41.6493 44.8107 41.8382 44.7257C42.0273 44.6401 42.1868 44.5233 42.3167 44.3755C42.4467 44.227 42.5452 44.0519 42.6124 43.8501C42.679 43.6477 42.7124 43.4298 42.7124 43.1963ZM19.8962 23.9863C20.3025 23.9863 20.6739 24.0525 21.0108 24.1848C21.3482 24.3177 21.6365 24.5054 21.876 24.7479C22.1158 24.9904 22.3026 25.2822 22.4364 25.6235C22.5707 25.9648 22.6378 26.3441 22.6378 26.7614C22.6378 27.1207 22.5903 27.4529 22.4949 27.7583C22.399 28.0636 22.271 28.3555 22.1107 28.6339C21.9504 28.9123 21.7624 29.1818 21.5469 29.4422C21.3319 29.7026 21.1067 29.9676 20.871 30.237L18.8849 32.4804C19.0798 32.4175 19.2708 32.369 19.4576 32.3349C19.6444 32.3014 19.8232 32.2846 19.9937 32.2846H22.2537C22.4161 32.2846 22.5453 32.3352 22.6412 32.4364C22.7364 32.5376 22.7841 32.671 22.7841 32.8369V33.8338H16.7404V33.2814C16.7404 33.1695 16.7617 33.0528 16.8045 32.9313C16.8467 32.8103 16.9147 32.6981 17.0084 32.5945L19.6826 29.6308C19.9063 29.3793 20.1064 29.1392 20.2829 28.9105C20.4595 28.6812 20.6078 28.4542 20.728 28.2297C20.8478 28.0052 20.9391 27.7774 21.0018 27.5463C21.0647 27.3152 21.0961 27.0715 21.0961 26.8153C21.0961 26.5818 21.0657 26.3764 21.0051 26.1992C20.9439 26.0219 20.8564 25.8726 20.7427 25.7511C20.629 25.6302 20.4941 25.5391 20.3382 25.478C20.1816 25.4175 20.006 25.3873 19.8109 25.3873C19.4492 25.3873 19.1516 25.4885 18.9182 25.6909C18.6848 25.8927 18.5213 26.1642 18.4276 26.5055C18.3831 26.6761 18.3162 26.7985 18.2269 26.8727C18.1376 26.947 18.0239 26.9841 17.8858 26.9841C17.8245 26.9841 17.7574 26.9773 17.6843 26.9635L16.8922 26.809C16.9535 26.342 17.0712 25.9322 17.2456 25.5795C17.4206 25.2269 17.639 24.9326 17.9011 24.6967C18.1627 24.4614 18.4633 24.2841 18.8028 24.165C19.1419 24.0458 19.5063 23.9863 19.8962 23.9863ZM30.0585 28.9644C30.0585 29.8128 29.9762 30.5501 29.8116 31.1763C29.647 31.8032 29.4196 32.3208 29.1292 32.7291C28.839 33.138 28.4959 33.4422 28.1 33.6415C27.7036 33.8415 27.2761 33.9416 26.8174 33.9416C26.3581 33.9416 25.9327 33.8415 25.5412 33.6415C25.1491 33.4422 24.8087 33.138 24.5201 32.7291C24.232 32.3208 24.0067 31.8032 23.8442 31.1763C23.6818 30.5501 23.6005 29.8128 23.6005 28.9644C23.6005 28.1113 23.6818 27.3724 23.8442 26.748C24.0067 26.1241 24.232 25.6076 24.5201 25.1987C24.8087 24.7903 25.1491 24.4862 25.5412 24.2862C25.9327 24.0863 26.3581 23.9863 26.8174 23.9863C27.2761 23.9863 27.7036 24.0863 28.1 24.2862C28.4959 24.4862 28.839 24.7903 29.1292 25.1987C29.4196 25.6076 29.647 26.1241 29.8116 26.748C29.9762 27.3724 30.0585 28.1113 30.0585 28.9644ZM28.5046 28.9644C28.5046 28.2591 28.458 27.6753 28.3648 27.2131C28.2711 26.7503 28.1463 26.3821 27.9904 26.1085C27.8339 25.8343 27.6541 25.6421 27.451 25.5319C27.2478 25.4224 27.0367 25.3676 26.8174 25.3676C26.6018 25.3676 26.3936 25.4224 26.1927 25.5319C25.9918 25.6421 25.8142 25.8343 25.6598 26.1085C25.5055 26.3821 25.3825 26.7503 25.291 27.2131C25.1995 27.6753 25.1537 28.2591 25.1537 28.9644C25.1537 29.6691 25.1995 30.2528 25.291 30.7157C25.3825 31.1779 25.5055 31.5461 25.6598 31.8203C25.8142 32.0939 25.9918 32.2858 26.1927 32.3959C26.3936 32.5061 26.6018 32.5612 26.8174 32.5612C27.0367 32.5612 27.2478 32.5061 27.451 32.3959C27.6541 32.2858 27.8339 32.0939 27.9904 31.8203C28.1463 31.5461 28.2711 31.1779 28.3648 30.7157C28.458 30.2528 28.5046 29.6691 28.5046 28.9644ZM37.1259 28.9644C37.1259 29.8128 37.0435 30.5501 36.8789 31.1763C36.7143 31.8032 36.4869 32.3208 36.1966 32.7291C35.9064 33.138 35.5632 33.4422 35.1674 33.6415C34.7709 33.8415 34.3434 33.9416 33.8847 33.9416C33.4255 33.9416 33.0001 33.8415 32.6085 33.6415C32.2164 33.4422 31.8761 33.138 31.5874 32.7291C31.2993 32.3208 31.074 31.8032 30.9115 31.1763C30.7491 30.5501 30.6678 29.8128 30.6678 28.9644C30.6678 28.1113 30.7491 27.3724 30.9115 26.748C31.074 26.1241 31.2993 25.6076 31.5874 25.1987C31.8761 24.7903 32.2164 24.4862 32.6085 24.2862C33.0001 24.0863 33.4255 23.9863 33.8847 23.9863C34.3434 23.9863 34.7709 24.0863 35.1674 24.2862C35.5632 24.4862 35.9064 24.7903 36.1966 25.1987C36.4869 25.6076 36.7143 26.1241 36.8789 26.748C37.0435 27.3724 37.1259 28.1113 37.1259 28.9644ZM35.5719 28.9644C35.5719 28.2591 35.5253 27.6753 35.4321 27.2131C35.3385 26.7503 35.2137 26.3821 35.0577 26.1085C34.9012 25.8343 34.7214 25.6421 34.5183 25.5319C34.3152 25.4224 34.104 25.3676 33.8847 25.3676C33.6691 25.3676 33.4609 25.4224 33.26 25.5319C33.059 25.6421 32.8814 25.8343 32.7271 26.1085C32.5728 26.3821 32.4498 26.7503 32.3583 27.2131C32.2668 27.6753 32.221 28.2591 32.221 28.9644C32.221 29.6691 32.2668 30.2528 32.3583 30.7157C32.4498 31.1779 32.5728 31.5461 32.7271 31.8203C32.8814 32.0939 33.059 32.2858 33.26 32.3959C33.4609 32.5061 33.6691 32.5612 33.8847 32.5612C34.104 32.5612 34.3152 32.5061 34.5183 32.3959C34.7214 32.2858 34.9012 32.0939 35.0577 31.8203C35.2137 31.5461 35.3385 31.1779 35.4321 30.7157C35.5253 30.2528 35.5719 29.6691 35.5719 28.9644ZM41.0982 23.9863C41.5044 23.9863 41.8759 24.0525 42.2127 24.1848C42.5501 24.3177 42.8385 24.5054 43.0779 24.7479C43.3178 24.9904 43.5046 25.2822 43.6384 25.6235C43.7726 25.9648 43.8399 26.3441 43.8399 26.7614C43.8399 27.1207 43.7922 27.4529 43.6968 27.7583C43.6011 28.0636 43.473 28.3555 43.3126 28.6339C43.1523 28.9123 42.9645 29.1818 42.7489 29.4422C42.5339 29.7026 42.3086 29.9676 42.073 30.237L40.0869 32.4804C40.2818 32.4175 40.4727 32.369 40.6596 32.3349C40.8464 32.3014 41.0252 32.2846 41.1958 32.2846H43.4556C43.6181 32.2846 43.7472 32.3352 43.8431 32.4364C43.9384 32.5376 43.9861 32.671 43.9861 32.8369V33.8338H37.9423V33.2814C37.9423 33.1695 37.9637 33.0528 38.0065 32.9313C38.0487 32.8103 38.1167 32.6981 38.2104 32.5945L40.8846 29.6308C41.1083 29.3793 41.3084 29.1392 41.4848 28.9105C41.6614 28.6812 41.8098 28.4542 41.93 28.2297C42.0497 28.0052 42.141 27.7774 42.2038 27.5463C42.2666 27.3152 42.2981 27.0715 42.2981 26.8153C42.2981 26.5818 42.2677 26.3764 42.2071 26.1992C42.1459 26.0219 42.0584 25.8726 41.9447 25.7511C41.831 25.6302 41.696 25.5391 41.5401 25.478C41.3836 25.4175 41.2079 25.3873 41.0129 25.3873C40.6511 25.3873 40.3536 25.4885 40.1202 25.6909C39.8867 25.8927 39.7232 26.1642 39.6295 26.5055C39.5851 26.6761 39.5182 26.7985 39.4289 26.8727C39.3395 26.947 39.2258 26.9841 39.0877 26.9841C39.0265 26.9841 38.9593 26.9773 38.8862 26.9635L38.0942 26.809C38.1554 26.342 38.2732 25.9322 38.4476 25.5795C38.6225 25.2269 38.841 24.9326 39.1031 24.6967C39.3646 24.4614 39.6653 24.2841 40.0049 24.165C40.3439 24.0458 40.7083 23.9863 41.0982 23.9863Z" fill="#324A32"/>
<path d="M39.4409 6.2793C40.5538 6.2793 42.3743 6.2802 45.7147 6.2793" stroke="black" stroke-width="3" stroke-miterlimit="3"/>
<path d="M27.104 6.2793C28.0772 6.2793 30.5824 6.2802 33.502 6.2793" stroke="black" stroke-width="3" stroke-miterlimit="3"/>
<path d="M14.8607 6.2793C15.8673 6.2793 18.0914 6.2802 21.1109 6.2793" stroke="black" stroke-width="3" stroke-miterlimit="3"/>
<path d="M52.3433 6.125C53.8137 6.125 54.6967 6.13587 56.5586 6.13497C58.267 6.13497 59.6544 7.66794 59.6544 9.55661L59.414 53.0337C59.4026 54.9484 57.9891 56.5056 56.2572 56.5092L4.70883 56.6125C3.00049 56.6125 1.61304 55.0795 1.61304 53.1909V9.55661C1.61304 7.66794 3.00049 6.13399 4.70883 6.13399C5.63896 6.13399 5.85583 6.13407 8.56418 6.13497" stroke="black" stroke-width="3" stroke-miterlimit="3"/>
<path d="M1.93811 17.4004H59.3273" stroke="black" stroke-width="3" stroke-miterlimit="3" stroke-linecap="square"/>
<path d="M11.7338 2V10.6287" stroke="black" stroke-width="3" stroke-miterlimit="3" stroke-linecap="round"/>
<path d="M24.1161 2V10.6287" stroke="black" stroke-width="3" stroke-miterlimit="3" stroke-linecap="round"/>
<path d="M36.4977 2V10.6287" stroke="black" stroke-width="3" stroke-miterlimit="3" stroke-linecap="round"/>
<path d="M48.8792 2V10.6287" stroke="black" stroke-width="3" stroke-miterlimit="3" stroke-linecap="round"/>
</svg>
