<svg width="62" height="59" viewBox="0 0 62 59" fill="none" xmlns="http://www.w3.org/2000/svg">
<path d="M40.0741 6.2793C41.187 6.2793 43.0076 6.2802 46.3471 6.2793" stroke="#324A32" stroke-width="3" stroke-miterlimit="3"/>
<path d="M27.7372 6.2793C28.7104 6.2793 31.2156 6.2802 34.1343 6.2793" stroke="#324A32" stroke-width="3" stroke-miterlimit="3"/>
<path d="M15.4939 6.2793C16.5004 6.2793 18.7247 6.2802 21.7441 6.2793" stroke="#324A32" stroke-width="3" stroke-miterlimit="3"/>
<path d="M52.9767 6.125C54.447 6.125 55.33 6.13587 57.1919 6.13497C58.9001 6.13497 60.2877 7.66794 60.2877 9.55661L60.0473 53.0337C60.0359 54.9484 58.6223 56.5056 56.8896 56.5092L5.34206 56.6125C3.63372 56.6125 2.24622 55.0795 2.24622 53.1909V9.55661C2.24622 7.66794 3.63372 6.13399 5.34206 6.13399C6.27218 6.13399 6.48906 6.13407 9.19735 6.13497" stroke="#324A32" stroke-width="3" stroke-miterlimit="3"/>
<path d="M2.57129 17.4004H59.9603" stroke="#324A32" stroke-width="3" stroke-miterlimit="3" stroke-linecap="square"/>
<path d="M12.3669 2V10.6287" stroke="#324A32" stroke-width="3" stroke-miterlimit="3" stroke-linecap="round"/>
<path d="M24.7493 2V10.6287" stroke="#324A32" stroke-width="3" stroke-miterlimit="3" stroke-linecap="round"/>
<path d="M37.1309 2V10.6287" stroke="#324A32" stroke-width="3" stroke-miterlimit="3" stroke-linecap="round"/>
<path d="M49.5128 2V10.6287" stroke="#324A32" stroke-width="3" stroke-miterlimit="3" stroke-linecap="round"/>
<mask id="path-10-inside-1_797_6712" fill="white">
<path fill-rule="evenodd" clip-rule="evenodd" d="M45.819 33.0242H47.0375V35.7859H49.407V37.0189H47.0375V39.794H45.819V37.0189H43.4608V35.7859H45.819V33.0242ZM15.9534 31.0781C16.3596 31.0781 16.7311 31.1443 17.0679 31.2766C17.4053 31.4089 17.6937 31.5963 17.9331 31.8388C18.173 32.0813 18.3598 32.3731 18.4935 32.7144C18.6279 33.0557 18.6951 33.4353 18.6951 33.8532C18.6951 34.2125 18.6474 34.5447 18.5521 34.8501C18.4562 35.1554 18.3281 35.4473 18.1678 35.7257C18.0075 36.0041 17.8196 36.2736 17.604 36.534C17.389 36.7944 17.1637 37.0594 16.9282 37.3288L14.942 39.5713C15.137 39.5084 15.3279 39.4602 15.5147 39.4267C15.7015 39.3931 15.8803 39.3764 16.0509 39.3764H18.3108C18.4733 39.3764 18.6024 39.427 18.6983 39.5282C18.7937 39.6288 18.8413 39.7622 18.8413 39.9287V40.9256H12.7975V40.3733C12.7975 40.2608 12.8188 40.144 12.8616 40.0231C12.9039 39.9015 12.9718 39.7893 13.0655 39.6863L15.7398 36.7226C15.9635 36.4711 16.1635 36.2307 16.34 36.0014C16.5166 35.7727 16.665 35.5461 16.7853 35.3216C16.9049 35.0971 16.9961 34.8692 17.059 34.6381C17.1218 34.4064 17.1533 34.1627 17.1533 33.9071C17.1533 33.6736 17.1229 33.4682 17.0622 33.2909C17.0011 33.1131 16.9136 32.9638 16.7998 32.8429C16.6861 32.7214 16.5513 32.6303 16.3953 32.5698C16.2387 32.5093 16.0631 32.4791 15.8682 32.4791C15.5063 32.4791 15.2088 32.5801 14.9754 32.7818C14.7419 32.9842 14.5784 33.256 14.4847 33.5973C14.4403 33.7679 14.3733 33.8903 14.284 33.9645C14.1946 34.0382 14.081 34.075 13.9429 34.075C13.8817 34.075 13.8145 34.0685 13.7414 34.0553L12.9494 33.8999C13.0106 33.4329 13.1284 33.0234 13.3028 32.6713C13.4777 32.3187 13.6961 32.0244 13.9583 31.7885C14.2198 31.5526 14.5205 31.3754 14.8601 31.2569C15.1991 31.1377 15.5635 31.0781 15.9534 31.0781ZM26.1158 36.0552C26.1158 36.9042 26.0335 37.6419 25.8688 38.2681C25.7042 38.8944 25.4766 39.412 25.1864 39.8209C24.8961 40.2292 24.553 40.5335 24.1572 40.7335C23.7608 40.9334 23.3332 41.0334 22.8745 41.0334C22.4153 41.0334 21.9899 40.9334 21.5983 40.7335C21.2062 40.5335 20.8659 40.2292 20.5772 39.8209C20.2891 39.412 20.0638 38.8944 19.9013 38.2681C19.7389 37.6419 19.6577 36.9042 19.6577 36.0552C19.6577 35.2021 19.7389 34.4636 19.9013 33.8398C20.0638 33.2153 20.2891 32.6989 20.5772 32.2906C20.8659 31.8817 21.2062 31.5774 21.5983 31.378C21.9899 31.1781 22.4153 31.0781 22.8745 31.0781C23.3332 31.0781 23.7608 31.1781 24.1572 31.378C24.553 31.5774 24.8961 31.8817 25.1864 32.2906C25.4766 32.6989 25.7042 33.2153 25.8688 33.8398C26.0335 34.4636 26.1158 35.2021 26.1158 36.0552ZM24.5618 36.0552C24.5618 35.3506 24.5152 34.7668 24.422 34.304C24.3283 33.8418 24.2035 33.4736 24.0475 33.1994C23.891 32.9258 23.7113 32.7339 23.5082 32.6237C23.3051 32.5136 23.0938 32.4584 22.8745 32.4584C22.659 32.4584 22.4507 32.5136 22.2498 32.6237C22.0489 32.7339 21.8712 32.9258 21.7169 33.1994C21.5626 33.4736 21.4397 33.8418 21.3481 34.304C21.2566 34.7668 21.2109 35.3506 21.2109 36.0552C21.2109 36.7605 21.2566 37.3444 21.3481 37.8066C21.4397 38.2694 21.5626 38.6376 21.7169 38.9112C21.8712 39.1854 22.0489 39.3776 22.2498 39.4877C22.4507 39.5973 22.659 39.6521 22.8745 39.6521C23.0938 39.6521 23.3051 39.5973 23.5082 39.4877C23.7113 39.3776 23.891 39.1854 24.0475 38.9112C24.2035 38.6376 24.3283 38.2694 24.422 37.8066C24.5152 37.3444 24.5618 36.7605 24.5618 36.0552ZM28.0588 40.9256V39.679H29.8443V34.0013C29.8443 33.781 29.8503 33.5497 29.8622 33.3072L28.595 34.4791C28.5424 34.5288 28.4889 34.5627 28.4341 34.5806C28.3789 34.5986 28.3251 34.6076 28.2725 34.6076C28.1913 34.6076 28.117 34.5885 28.0499 34.5501C27.9827 34.5118 27.933 34.4681 27.9005 34.419L27.4252 33.6978L30.1125 31.1724H31.3488V39.679H32.9328V40.9256H28.0588ZM36.7168 37.0387C36.4119 37.0387 36.1132 36.9803 35.8208 36.8635C35.5283 36.7468 35.2675 36.5708 35.0384 36.3355C34.8089 36.0996 34.6249 35.8077 34.4868 35.4599C34.3487 35.1114 34.2797 34.7037 34.2797 34.2367C34.2797 33.8014 34.3528 33.3927 34.499 33.0107C34.6452 32.6293 34.8503 32.295 35.114 32.0076C35.3783 31.7202 35.695 31.4933 36.0643 31.3268C36.4343 31.161 36.8426 31.0781 37.2894 31.0781C37.74 31.0781 38.145 31.1566 38.5046 31.3135C38.8642 31.4709 39.1711 31.6909 39.4251 31.9735C39.6785 32.2567 39.8735 32.5958 40.01 32.991C40.1459 33.3862 40.2138 33.8194 40.2138 34.2905C40.2138 34.5917 40.1906 34.877 40.144 35.1464C40.0969 35.4158 40.0297 35.6751 39.9425 35.9241C39.8553 36.1732 39.7508 36.4157 39.629 36.6516C39.5071 36.8875 39.3708 37.1243 39.2203 37.362L37.2041 40.5412C37.1348 40.6489 37.0322 40.74 36.8962 40.8143C36.7603 40.8885 36.6049 40.9256 36.4299 40.9256H35.0474L37.7825 37.1465C37.8518 37.0525 37.9169 36.9606 37.9775 36.8708C38.0387 36.781 38.0976 36.6911 38.1545 36.6013C37.9514 36.745 37.728 36.854 37.4843 36.9282C37.2407 37.0019 36.9849 37.0387 36.7168 37.0387ZM38.7695 34.1226C38.7695 33.8574 38.733 33.6206 38.6599 33.4122C38.5867 33.2032 38.4832 33.0269 38.3494 32.8832C38.2151 32.7395 38.0556 32.6295 37.871 32.5528C37.6863 32.4768 37.4843 32.4387 37.265 32.4387C37.0376 32.4387 36.8324 32.4803 36.6493 32.5636C36.4669 32.6462 36.3116 32.7617 36.1838 32.9102C36.0555 33.0581 35.957 33.2344 35.8881 33.4392C35.8188 33.6433 35.7841 33.8666 35.7841 34.1091C35.7841 34.6522 35.9111 35.0665 36.1651 35.3521C36.4191 35.6371 36.7795 35.7795 37.2464 35.7795C37.49 35.7795 37.7064 35.7368 37.8954 35.6512C38.0844 35.5661 38.2439 35.4494 38.3739 35.3009C38.5038 35.153 38.6024 34.9779 38.6695 34.7755C38.7362 34.5738 38.7695 34.3561 38.7695 34.1226Z"/>
</mask>
<path fill-rule="evenodd" clip-rule="evenodd" d="M45.819 33.0242H47.0375V35.7859H49.407V37.0189H47.0375V39.794H45.819V37.0189H43.4608V35.7859H45.819V33.0242ZM15.9534 31.0781C16.3596 31.0781 16.7311 31.1443 17.0679 31.2766C17.4053 31.4089 17.6937 31.5963 17.9331 31.8388C18.173 32.0813 18.3598 32.3731 18.4935 32.7144C18.6279 33.0557 18.6951 33.4353 18.6951 33.8532C18.6951 34.2125 18.6474 34.5447 18.5521 34.8501C18.4562 35.1554 18.3281 35.4473 18.1678 35.7257C18.0075 36.0041 17.8196 36.2736 17.604 36.534C17.389 36.7944 17.1637 37.0594 16.9282 37.3288L14.942 39.5713C15.137 39.5084 15.3279 39.4602 15.5147 39.4267C15.7015 39.3931 15.8803 39.3764 16.0509 39.3764H18.3108C18.4733 39.3764 18.6024 39.427 18.6983 39.5282C18.7937 39.6288 18.8413 39.7622 18.8413 39.9287V40.9256H12.7975V40.3733C12.7975 40.2608 12.8188 40.144 12.8616 40.0231C12.9039 39.9015 12.9718 39.7893 13.0655 39.6863L15.7398 36.7226C15.9635 36.4711 16.1635 36.2307 16.34 36.0014C16.5166 35.7727 16.665 35.5461 16.7853 35.3216C16.9049 35.0971 16.9961 34.8692 17.059 34.6381C17.1218 34.4064 17.1533 34.1627 17.1533 33.9071C17.1533 33.6736 17.1229 33.4682 17.0622 33.2909C17.0011 33.1131 16.9136 32.9638 16.7998 32.8429C16.6861 32.7214 16.5513 32.6303 16.3953 32.5698C16.2387 32.5093 16.0631 32.4791 15.8682 32.4791C15.5063 32.4791 15.2088 32.5801 14.9754 32.7818C14.7419 32.9842 14.5784 33.256 14.4847 33.5973C14.4403 33.7679 14.3733 33.8903 14.284 33.9645C14.1946 34.0382 14.081 34.075 13.9429 34.075C13.8817 34.075 13.8145 34.0685 13.7414 34.0553L12.9494 33.8999C13.0106 33.4329 13.1284 33.0234 13.3028 32.6713C13.4777 32.3187 13.6961 32.0244 13.9583 31.7885C14.2198 31.5526 14.5205 31.3754 14.8601 31.2569C15.1991 31.1377 15.5635 31.0781 15.9534 31.0781ZM26.1158 36.0552C26.1158 36.9042 26.0335 37.6419 25.8688 38.2681C25.7042 38.8944 25.4766 39.412 25.1864 39.8209C24.8961 40.2292 24.553 40.5335 24.1572 40.7335C23.7608 40.9334 23.3332 41.0334 22.8745 41.0334C22.4153 41.0334 21.9899 40.9334 21.5983 40.7335C21.2062 40.5335 20.8659 40.2292 20.5772 39.8209C20.2891 39.412 20.0638 38.8944 19.9013 38.2681C19.7389 37.6419 19.6577 36.9042 19.6577 36.0552C19.6577 35.2021 19.7389 34.4636 19.9013 33.8398C20.0638 33.2153 20.2891 32.6989 20.5772 32.2906C20.8659 31.8817 21.2062 31.5774 21.5983 31.378C21.9899 31.1781 22.4153 31.0781 22.8745 31.0781C23.3332 31.0781 23.7608 31.1781 24.1572 31.378C24.553 31.5774 24.8961 31.8817 25.1864 32.2906C25.4766 32.6989 25.7042 33.2153 25.8688 33.8398C26.0335 34.4636 26.1158 35.2021 26.1158 36.0552ZM24.5618 36.0552C24.5618 35.3506 24.5152 34.7668 24.422 34.304C24.3283 33.8418 24.2035 33.4736 24.0475 33.1994C23.891 32.9258 23.7113 32.7339 23.5082 32.6237C23.3051 32.5136 23.0938 32.4584 22.8745 32.4584C22.659 32.4584 22.4507 32.5136 22.2498 32.6237C22.0489 32.7339 21.8712 32.9258 21.7169 33.1994C21.5626 33.4736 21.4397 33.8418 21.3481 34.304C21.2566 34.7668 21.2109 35.3506 21.2109 36.0552C21.2109 36.7605 21.2566 37.3444 21.3481 37.8066C21.4397 38.2694 21.5626 38.6376 21.7169 38.9112C21.8712 39.1854 22.0489 39.3776 22.2498 39.4877C22.4507 39.5973 22.659 39.6521 22.8745 39.6521C23.0938 39.6521 23.3051 39.5973 23.5082 39.4877C23.7113 39.3776 23.891 39.1854 24.0475 38.9112C24.2035 38.6376 24.3283 38.2694 24.422 37.8066C24.5152 37.3444 24.5618 36.7605 24.5618 36.0552ZM28.0588 40.9256V39.679H29.8443V34.0013C29.8443 33.781 29.8503 33.5497 29.8622 33.3072L28.595 34.4791C28.5424 34.5288 28.4889 34.5627 28.4341 34.5806C28.3789 34.5986 28.3251 34.6076 28.2725 34.6076C28.1913 34.6076 28.117 34.5885 28.0499 34.5501C27.9827 34.5118 27.933 34.4681 27.9005 34.419L27.4252 33.6978L30.1125 31.1724H31.3488V39.679H32.9328V40.9256H28.0588ZM36.7168 37.0387C36.4119 37.0387 36.1132 36.9803 35.8208 36.8635C35.5283 36.7468 35.2675 36.5708 35.0384 36.3355C34.8089 36.0996 34.6249 35.8077 34.4868 35.4599C34.3487 35.1114 34.2797 34.7037 34.2797 34.2367C34.2797 33.8014 34.3528 33.3927 34.499 33.0107C34.6452 32.6293 34.8503 32.295 35.114 32.0076C35.3783 31.7202 35.695 31.4933 36.0643 31.3268C36.4343 31.161 36.8426 31.0781 37.2894 31.0781C37.74 31.0781 38.145 31.1566 38.5046 31.3135C38.8642 31.4709 39.1711 31.6909 39.4251 31.9735C39.6785 32.2567 39.8735 32.5958 40.01 32.991C40.1459 33.3862 40.2138 33.8194 40.2138 34.2905C40.2138 34.5917 40.1906 34.877 40.144 35.1464C40.0969 35.4158 40.0297 35.6751 39.9425 35.9241C39.8553 36.1732 39.7508 36.4157 39.629 36.6516C39.5071 36.8875 39.3708 37.1243 39.2203 37.362L37.2041 40.5412C37.1348 40.6489 37.0322 40.74 36.8962 40.8143C36.7603 40.8885 36.6049 40.9256 36.4299 40.9256H35.0474L37.7825 37.1465C37.8518 37.0525 37.9169 36.9606 37.9775 36.8708C38.0387 36.781 38.0976 36.6911 38.1545 36.6013C37.9514 36.745 37.728 36.854 37.4843 36.9282C37.2407 37.0019 36.9849 37.0387 36.7168 37.0387ZM38.7695 34.1226C38.7695 33.8574 38.733 33.6206 38.6599 33.4122C38.5867 33.2032 38.4832 33.0269 38.3494 32.8832C38.2151 32.7395 38.0556 32.6295 37.871 32.5528C37.6863 32.4768 37.4843 32.4387 37.265 32.4387C37.0376 32.4387 36.8324 32.4803 36.6493 32.5636C36.4669 32.6462 36.3116 32.7617 36.1838 32.9102C36.0555 33.0581 35.957 33.2344 35.8881 33.4392C35.8188 33.6433 35.7841 33.8666 35.7841 34.1091C35.7841 34.6522 35.9111 35.0665 36.1651 35.3521C36.4191 35.6371 36.7795 35.7795 37.2464 35.7795C37.49 35.7795 37.7064 35.7368 37.8954 35.6512C38.0844 35.5661 38.2439 35.4494 38.3739 35.3009C38.5038 35.153 38.6024 34.9779 38.6695 34.7755C38.7362 34.5738 38.7695 34.3561 38.7695 34.1226Z" fill="black" stroke="#324A32" stroke-width="2" mask="url(#path-10-inside-1_797_6712)"/>
</svg>
