<svg width="177" height="120" viewBox="0 0 177 120" fill="none" xmlns="http://www.w3.org/2000/svg">
<path d="M106.434 112.503V89.6406H127.69V112.421" stroke="#324A32" stroke-width="3" stroke-miterlimit="3" stroke-linecap="square"/>
<path d="M14.6238 10.5464V109.456C14.6238 111.193 17.3403 112.604 20.6832 112.604H153.092C156.435 112.604 159.148 111.193 159.148 109.456V10.5464C159.148 8.80892 156.435 7.39844 153.092 7.39844H20.6832C17.3403 7.39844 14.6238 8.80892 14.6238 10.5464Z" stroke="#324A32" stroke-width="3" stroke-miterlimit="3" stroke-linecap="square"/>
<path d="M69.95 58.6328H46.9104V74.2014H69.95V58.6328Z" stroke="#324A32" stroke-width="3" stroke-miterlimit="2" stroke-linecap="square"/>
<path d="M69.95 24.9844H46.9104V40.553H69.95V24.9844Z" stroke="#324A32" stroke-width="3" stroke-miterlimit="2" stroke-linecap="square"/>
<path d="M69.95 89.8906H46.9104V105.459H69.95V89.8906Z" stroke="#324A32" stroke-width="3" stroke-miterlimit="2" stroke-linecap="square"/>
<path d="M128.357 58.6328H105.317V74.2014H128.357V58.6328Z" stroke="#324A32" stroke-width="3" stroke-miterlimit="2" stroke-linecap="square"/>
<path d="M128.357 24.9844H105.317V40.553H128.357V24.9844Z" stroke="#324A32" stroke-width="3" stroke-miterlimit="2" stroke-linecap="square"/>
</svg>
