<svg width="158" height="158" viewBox="0 0 158 158" fill="none" xmlns="http://www.w3.org/2000/svg">
<path d="M125.083 85.5835C123.337 85.5835 121.663 86.2771 120.428 87.5117C119.194 88.7463 118.5 90.4208 118.5 92.1668V94.6685L108.757 84.9251C105.316 81.512 100.667 79.5967 95.8205 79.5967C90.9743 79.5967 86.3245 81.512 82.8842 84.9251L78.2759 89.5335L61.9492 73.2068C58.4608 69.8862 53.8291 68.0341 49.0129 68.0341C44.1968 68.0341 39.565 69.8862 36.0767 73.2068L26.3333 82.9501V46.0834C26.3333 44.3374 27.0269 42.6629 28.2615 41.4283C29.4961 40.1937 31.1706 39.5001 32.9167 39.5001H79C80.7461 39.5001 82.4205 38.8065 83.6552 37.5719C84.8898 36.3372 85.5834 34.6628 85.5834 32.9167C85.5834 31.1707 84.8898 29.4962 83.6552 28.2616C82.4205 27.027 80.7461 26.3334 79 26.3334H32.9167C27.6786 26.3334 22.6551 28.4142 18.9513 32.118C15.2474 35.8219 13.1666 40.8454 13.1666 46.0834V125.083C13.1666 130.322 15.2474 135.345 18.9513 139.049C22.6551 142.753 27.6786 144.834 32.9167 144.834H111.917C117.155 144.834 122.178 142.753 125.882 139.049C129.586 135.345 131.667 130.322 131.667 125.083V92.1668C131.667 90.4208 130.973 88.7463 129.739 87.5117C128.504 86.2771 126.829 85.5835 125.083 85.5835ZM32.9167 131.667C31.1706 131.667 29.4961 130.973 28.2615 129.739C27.0269 128.504 26.3333 126.83 26.3333 125.083V101.581L45.425 82.4893C46.3922 81.5676 47.6769 81.0535 49.0129 81.0535C50.3489 81.0535 51.6337 81.5676 52.6008 82.4893L73.47 103.358L101.778 131.667H32.9167ZM118.5 125.083C118.491 126.344 118.075 127.567 117.315 128.573L87.6242 98.7501L92.2326 94.1418C92.7045 93.6601 93.2679 93.2774 93.8896 93.0161C94.5114 92.7549 95.179 92.6203 95.8534 92.6203C96.5278 92.6203 97.1954 92.7549 97.8172 93.0161C98.4389 93.2774 99.0023 93.6601 99.4742 94.1418L118.5 113.299V125.083ZM149.508 28.2426L129.758 8.49255C129.132 7.8932 128.393 7.42338 127.585 7.11005C125.982 6.4516 124.185 6.4516 122.582 7.11005C121.774 7.42338 121.035 7.8932 120.409 8.49255L100.659 28.2426C99.4196 29.4822 98.7231 31.1636 98.7231 32.9167C98.7231 34.6699 99.4196 36.3512 100.659 37.5909C101.899 38.8306 103.58 39.527 105.333 39.527C107.087 39.527 108.768 38.8306 110.008 37.5909L118.5 29.0326V65.8334C118.5 67.5794 119.194 69.2539 120.428 70.4886C121.663 71.7232 123.337 72.4168 125.083 72.4168C126.829 72.4168 128.504 71.7232 129.739 70.4886C130.973 69.2539 131.667 67.5794 131.667 65.8334V29.0326L140.159 37.5909C140.771 38.208 141.499 38.6977 142.302 39.0319C143.104 39.3662 143.964 39.5382 144.833 39.5382C145.703 39.5382 146.563 39.3662 147.365 39.0319C148.167 38.6977 148.896 38.208 149.508 37.5909C150.125 36.9789 150.614 36.2508 150.949 35.4485C151.283 34.6463 151.455 33.7858 151.455 32.9167C151.455 32.0477 151.283 31.1872 150.949 30.3849C150.614 29.5827 150.125 28.8546 149.508 28.2426Z" fill="#324A32" fill-opacity="0.8"/>
</svg>
