<svg width="178" height="120" viewBox="0 0 178 120" fill="none" xmlns="http://www.w3.org/2000/svg">
<path d="M58.4841 111.737V76.9296H70.6541V111.612" stroke="#324A32" stroke-width="3" stroke-miterlimit="3" stroke-linecap="square"/>
<path d="M46.4305 8.38838L8.62478 54.273C7.63994 55.4674 6.84077 57.908 6.84077 59.719V109.222C6.84077 111.033 7.90512 112.503 9.21542 112.503H87.2149C88.5253 112.503 89.5884 111.033 89.5884 109.222V60.242C89.5884 58.431 88.7929 55.9836 87.8129 54.7826L49.9914 8.4018C49.0102 7.199 47.4154 7.1939 46.4305 8.38838Z" stroke="#324A32" stroke-width="3" stroke-miterlimit="3" stroke-linecap="square"/>
<path d="M45.5107 43.4688H32.3186V67.17H45.5107V43.4688Z" stroke="#324A32" stroke-width="3" stroke-miterlimit="2" stroke-linecap="square"/>
<path d="M141.206 111.737V76.9296H153.375V111.612" stroke="#324A32" stroke-width="3" stroke-miterlimit="3" stroke-linecap="square"/>
<path d="M129.153 8.38838L91.3472 54.273C90.3624 55.4674 89.5633 57.908 89.5633 59.719V109.222C89.5633 111.033 90.6275 112.503 91.9379 112.503H169.938C171.248 112.503 172.311 111.033 172.311 109.222V60.242C172.311 58.431 171.515 55.9836 170.536 54.7826L132.714 8.4018C131.733 7.199 130.138 7.1939 129.153 8.38838Z" stroke="#324A32" stroke-width="3" stroke-miterlimit="3" stroke-linecap="square"/>
<path d="M128.233 43.4688H115.041V67.17H128.233V43.4688Z" stroke="#324A32" stroke-width="3" stroke-miterlimit="2" stroke-linecap="square"/>
</svg>
