<?xml version="1.0" encoding="UTF-8" standalone="no"?><!DOCTYPE svg PUBLIC "-//W3C//DTD SVG 1.1//EN" "http://www.w3.org/Graphics/SVG/1.1/DTD/svg11.dtd"><svg width="100%" height="100%" viewBox="0 0 525 542" version="1.1" xmlns="http://www.w3.org/2000/svg" xmlns:xlink="http://www.w3.org/1999/xlink" xml:space="preserve" xmlns:serif="http://www.serif.com/" style="fill-rule:evenodd;clip-rule:evenodd;stroke-miterlimit:10;"><g id="Ebene_2"><path d="M524.5,542.5l0,-543.5l-174.2,0.4c63.2,15.4 107.5,65.6 107.5,65.6l-73.1,176.2c0,0 49.2,36.3 64.2,103.1c12.5,55.8 0.1,102.1 -13.2,123.4c-32.4,51.9 -92.4,74.7 -92.4,74.7c41.5,0.1 181.2,0.1 181.2,0.1Z" style="fill:#fff;fill-rule:nonzero;stroke:#fff;stroke-width:1px;"/><path d="M81.5,207c8.6,43.3 62.8,94.9 62.8,94.9c-24.2,58 -48.3,115.9 -72.5,173.9c9.8,12.2 23.5,25.4 39.5,35.5c27,17 64.9,31.3 64.8,31.2l-174.6,0l0,-543l184.5,0c-10,-1 -69,32.8 -94.7,80.8c-22.5,42.1 -20.3,85.7 -9.8,126.7Z" style="fill:#fff;fill-rule:nonzero;stroke:#fff;stroke-width:1px;"/><path d="M271.3,31.6c-2.8,6.5 -5.5,13 -8.4,19.8c-6.6,-2.8 -13.2,-5.6 -19.9,-8.5c-2.9,6.7 -5.6,13.2 -8.5,19.9c6.6,2.8 13.2,5.6 20,8.5c-2.9,6.9 -5.8,13.6 -8.7,20.4c6.8,2.9 13.4,5.7 20.2,8.6c2.8,-6.7 5.7,-13.4 8.6,-20.3c6.8,2.9 13.3,5.7 20,8.5c2.8,-6.6 5.6,-13.1 8.4,-19.8c-6.6,-2.8 -13.2,-5.6 -19.9,-8.4c2.9,-6.8 5.7,-13.3 8.5,-20c20,8.5 40,17 60.1,25.5c-2.8,6.6 -5.6,13.2 -8.4,19.9c-6.6,-2.8 -13.2,-5.6 -19.9,-8.5c-2.8,6.6 -5.6,13.1 -8.4,19.8c6.6,2.8 13.2,5.6 19.9,8.5c-2.9,6.9 -5.8,13.6 -8.7,20.4c6.4,2.7 12.6,5.4 19.1,8.1c10.8,-25.3 21.5,-50.7 32.4,-76.2c13.9,5.9 27.5,11.7 41.3,17.6c-0.4,0.9 -0.7,1.7 -1.1,2.6c-33.4,78.5 -66.7,157 -100.1,235.5c-0.8,1.8 -0.7,2.8 0.9,4.2c9.3,7.6 12.2,19.8 7.6,30.9c-4.7,11.1 -15.5,17.7 -27.5,16.5c-0.8,-0.1 -1.6,-0.1 -2.6,-0.2c0.4,0.8 0.6,1.3 0.9,1.8c10.6,18 21.2,36.1 31.7,54.1c0.7,1.3 1.5,1.5 2.9,1.4c9.4,-1 18.1,0.8 25.1,7.5c8,7.6 9.8,17.1 8.6,27.7c-0.5,4.8 -2.5,8.8 -5.8,12.3c-3.4,3.5 -7.1,6.6 -11.5,8.8c-12.6,6.3 -26.4,3.5 -35.4,-7.4c-0.8,-1 -1.5,-1.4 -2.9,-1c-21.5,6.2 -43.1,12.4 -64.6,18.6c-0.4,0.1 -0.9,0.2 -1.4,0.4c0.2,1.1 0.4,1.9 0.5,2.8c4.1,22.6 -11.9,39 -34.7,36c-7.8,-1 -13,-5.6 -17.3,-11.5c-7,-9.4 -9.3,-19.7 -4.6,-30.9c2.4,-5.7 6.7,-9.9 11.9,-13.1c0.6,-0.4 1.1,-0.7 1.9,-1.2c-0.4,-0.7 -0.7,-1.5 -1,-2.2c-10.2,-19.3 -20.5,-38.6 -30.7,-58c-0.8,-1.6 -1.7,-2.1 -3.5,-2.1c-11.1,0.4 -20.5,-3 -26.9,-12.6c-5.5,-8.3 -5.9,-17.5 -3.6,-26.8c0.5,-1.9 1.5,-3.9 2.8,-5.5c6.1,-8 13.9,-13.4 24.1,-14.5c11.1,-1.3 19.7,3.2 26.2,12c0.7,1 1.3,1.4 2.6,1.1c20.6,-5 41.2,-10 61.8,-14.9c0.4,-0.1 0.8,-0.2 1.4,-0.4c-0.7,-0.6 -1.2,-1.1 -1.8,-1.5c-9.4,-7.8 -12.3,-20.1 -7.5,-31.3c4.9,-11.3 16,-17.7 28.3,-16.1c1.4,0.2 2,-0.2 2.5,-1.5c14.2,-33.6 28.5,-67.2 42.8,-100.8c0.2,-0.4 0.4,-0.9 0.6,-1.5c-6.4,-2.7 -12.6,-5.4 -19.1,-8.1c-2.8,6.6 -5.6,13.1 -8.5,19.9c-6.8,-2.9 -13.4,-5.7 -20.1,-8.5c-2.9,6.8 -5.7,13.4 -8.6,20.2c6.6,2.8 13.2,5.6 19.9,8.4c-2.8,6.7 -5.6,13.3 -8.5,19.9c-19.9,-8.5 -39.9,-17 -60,-25.5c2.8,-6.5 5.6,-13.1 8.4,-19.9c6.6,2.8 13.2,5.6 19.9,8.5c2.9,-6.8 5.7,-13.4 8.6,-20.2c-6.7,-2.8 -13.2,-5.6 -20,-8.5c2.9,-6.8 5.7,-13.4 8.5,-20.1c-6.8,-2.9 -13.4,-5.7 -20.2,-8.6c-2.8,6.6 -5.6,13.2 -8.5,20c-6.8,-2.9 -13.4,-5.7 -20.1,-8.5c-2.9,6.8 -5.7,13.4 -8.6,20.2c6.6,2.8 13.2,5.6 19.9,8.4c-2.8,6.7 -5.6,13.3 -8.5,19.9c-19.9,-8.5 -39.9,-16.9 -60,-25.5c2.8,-6.5 5.5,-13.1 8.4,-19.8c6.6,2.8 13.2,5.6 19.9,8.4c2.9,-6.8 5.7,-13.4 8.6,-20.2c-6.6,-2.8 -13.2,-5.6 -19.9,-8.4c5.7,-13.4 11.3,-26.7 17,-40.1c6.5,2.8 13.1,5.5 19.8,8.4c-2.8,6.6 -5.6,13.2 -8.4,19.9c6.8,2.9 13.4,5.7 20.2,8.6c2.8,-6.6 5.6,-13.2 8.4,-19.9c20.1,8.6 40.1,17 60.3,25.6c-2.8,6.6 -5.6,13.2 -8.4,19.9c6.8,2.9 13.4,5.7 20.2,8.6c2.8,-6.6 5.6,-13.2 8.5,-20c6.8,2.9 13.4,5.7 20.1,8.5c2.9,-6.8 5.7,-13.4 8.6,-20.2c-6.6,-2.8 -13.1,-5.6 -19.9,-8.5c2.9,-6.8 5.7,-13.4 8.5,-20.1c-6.8,-2.9 -13.4,-5.7 -20.3,-8.6c-2.8,6.6 -5.6,13.2 -8.5,19.9c-20.1,-8.6 -40.1,-17 -60.2,-25.6c2.8,-6.6 5.6,-13.2 8.5,-19.9c-6.8,-2.9 -13.4,-5.7 -20.3,-8.6c-2.8,6.6 -5.6,13.2 -8.5,19.9c-6.8,-2.9 -13.3,-5.7 -20,-8.5c5.7,-13.4 11.4,-26.8 17.1,-40.3c6.6,2.8 13.2,5.6 19.9,8.5c2.9,-6.7 5.6,-13.2 8.5,-19.9c-6.6,-2.8 -13.2,-5.6 -19.9,-8.5c2.9,-6.7 5.6,-13.2 8.5,-19.9c20.4,8.8 40.4,17.3 60.5,25.8Zm-36.2,390.2c-0.4,1 -0.7,1.6 -1,2.3c-4.3,10.1 -8.5,20.3 -13,30.3c-1.2,2.7 -0.8,4.9 0.9,6.9c4.2,4.7 9.5,6.7 15.8,6c2.2,-0.2 3.7,-1.3 4.7,-3.6c4.3,-10.3 8.7,-20.5 13,-30.8c0.3,-0.7 0.6,-1.3 0.9,-2.2c0.9,0.4 1.5,0.6 2.2,0.9c10.2,4.4 20.5,8.6 30.7,13.1c2.4,1.1 4.5,0.7 6.4,-0.8c5,-4.2 7.1,-9.7 6.3,-16.2c-0.3,-2.1 -1.4,-3.5 -3.6,-4.4c-10.3,-4.3 -20.5,-8.7 -30.8,-13c-0.7,-0.3 -1.3,-0.6 -2.1,-0.9c0.4,-0.9 0.7,-1.6 1,-2.2c4.3,-10.2 8.6,-20.4 13,-30.5c1.2,-2.7 0.7,-4.9 -1,-6.9c-4.1,-4.6 -9.4,-6.6 -15.6,-6c-2.3,0.2 -3.8,1.4 -4.8,3.7c-4.2,10.3 -8.7,20.5 -13,30.8c-0.3,0.7 -0.6,1.3 -0.9,2.1c-0.9,-0.4 -1.6,-0.7 -2.3,-1c-10.2,-4.3 -20.4,-8.6 -30.5,-13c-2.5,-1.1 -4.7,-0.8 -6.6,0.8c-4.9,4.2 -7,9.6 -6.2,16c0.3,2.1 1.4,3.6 3.5,4.5c10.3,4.3 20.5,8.7 30.8,13c0.6,0.4 1.3,0.7 2.2,1.1Z" style="fill:#fff;fill-rule:nonzero;"/></g></svg>