<svg width="59" height="49" viewBox="0 0 59 49" fill="none" xmlns="http://www.w3.org/2000/svg">
<g opacity="0.6">
<path d="M21.11 27.817C21.11 27.817 12.5215 33.8009 11.949 36.6542C11.3766 39.5074 10.3744 42.5587 13.9048 44.0644C17.4352 45.5702 25.7845 45.5305 30.3666 43.8658C34.9487 42.2011 45.9243 35.8232 46.9241 33.9989C47.9239 32.1747 48.2603 26.9449 45.4929 25.4789C42.7255 24.0128 36.0928 23.0613 33.7073 23.299C31.3218 23.5368 23.883 25.7537 21.11 27.817Z" fill="#E1031C"/>
<path d="M22.3682 24.6517C22.3682 24.6517 23.1049 26.3535 21.1101 27.8169C21.1101 27.8169 24.3312 31.9679 30.236 31.1939C36.1408 30.4198 37.9299 28.0731 37.9658 27.0626C38.0016 26.0522 37.5719 24.6504 37.5719 24.6504L22.3682 24.6517Z" fill="#F4AF92"/>
<path d="M22.9351 25.013C22.9351 25.013 26.8003 28.7576 31.7747 28.7576C36.749 28.7576 39.1473 24.2701 39.7548 21.8625C40.3624 19.4549 40.7483 14.1946 40.7483 14.1946V11.4599L39.5762 9.37939L30.1283 10.1521C30.1283 10.1521 20.9689 14.9376 20.8956 15.0859C20.8222 15.2342 20.4658 19.5144 20.4658 19.5144C20.4658 19.5144 21.0742 21.9817 21.0742 22.0704C21.0742 22.1591 22.9351 25.013 22.9351 25.013Z" fill="#F9D7C9"/>
<path d="M26.8003 21.5355C26.8003 21.5355 26.0125 18.5637 23.8654 18.622C21.7183 18.6803 21.3938 21.3858 22.3266 22.5744C22.8817 23.2977 23.0981 24.1649 22.935 25.0118C22.935 25.0118 19.4268 23.3174 18.6407 17.4632C17.8546 11.609 18.9269 9.31861 22.7205 6.615C26.514 3.91139 30.2717 3.13865 33.885 4.5027C37.4984 5.86676 40.4699 6.96992 40.7561 10.3297C41.0424 13.6895 40.7561 14.4272 40.7561 14.4272C40.7561 14.4272 40.6844 10.5674 39.5036 10.388C38.3228 10.2086 36.9985 13.0923 33.5239 14.0133C30.0492 14.9344 26.8361 14.5722 27.1901 16.3912C27.5513 18.2366 27.5864 19.604 26.8003 21.5355Z" fill="#004A7F"/>
<path d="M11.9491 36.6541C11.3759 39.5074 10.3744 42.5586 13.9049 44.0644C14.0938 44.1452 14.2972 44.2206 14.5124 44.2922C14.5124 44.2922 14.034 40.8966 14.5124 37.4884C14.9908 34.0803 21.1101 27.8169 21.1101 27.8169C21.1101 27.8169 12.5216 33.8009 11.9491 36.6541Z" fill="#9B1F24"/>
<path d="M33.8851 4.50249C30.2709 3.13579 26.5133 3.90655 22.7229 6.6128C18.9326 9.31906 17.8594 11.6062 18.6431 17.461C19.2299 21.8266 21.3292 23.8787 22.3585 24.6402C22.2613 24.5614 21.5421 23.8648 20.8102 20.0097C20.0233 15.8606 20.1947 12.0531 23.8216 9.4952C27.4485 6.93726 30.9351 5.51957 34.4599 5.91753C37.8548 6.30093 39.3984 7.39482 39.5076 7.47494C38.2574 6.15061 36.2052 5.38251 33.8851 4.50249Z" fill="#083860"/>
</g>
</svg>
