<svg width="135" height="111" viewBox="0 0 135 111" fill="none" xmlns="http://www.w3.org/2000/svg">
<path d="M61.375 0.0416718H12.375C5.6375 0.0416718 0.125 4.57917 0.125 10.125V70.625L18.5 55.5H49.125V50.4583C49.125 39.3667 60.0887 30.2917 73.625 30.2917V10.125C73.625 4.57917 68.1125 0.0416718 61.375 0.0416718ZM61.375 15.1667H52.1875C50.105 21.1663 46.3075 26.7625 41.04 31.6025L40.9175 31.7033L48.635 38.0054L46.3688 43.0975L36.875 35.3333L21.5625 47.9375L17.3363 44.2571L32.8325 31.7033C29.088 28.2925 26.0279 24.4122 23.7675 20.2083H29.8312C31.73 23.2333 34.0575 26.1071 36.875 28.6783C41.1636 24.7597 44.4357 20.1621 46.4912 15.1667H12.375V10.125H33.8125V5.08334H39.9375V10.125H61.375V15.1667ZM122.625 40.375H73.625C66.8875 40.375 61.375 44.9125 61.375 50.4583V85.75C61.375 91.2958 66.8875 95.8333 73.625 95.8333H116.5L134.875 110.958V50.4583C134.875 44.9125 129.363 40.375 122.625 40.375ZM114.234 90.7917L109.028 79.4479H87.2225L82.0775 90.7917H72.89L93.5312 45.4167H102.719L123.421 90.7917H114.234ZM98.125 55.5L105.597 71.8854H90.7138L98.125 55.5Z" fill="#324A32"/>
</svg>
