<svg width="146" height="119" viewBox="0 0 146 119" fill="none" xmlns="http://www.w3.org/2000/svg">
<g clip-path="url(#clip0_1019_12146)">
<path d="M82.3082 100.155C77.5487 100.155 73.0505 102.803 73.0501 106.619V115.99C73.0538 116.703 73.4198 117.386 74.0682 117.89C74.7165 118.394 75.5947 118.678 76.5116 118.681H111.214C112.132 118.68 113.013 118.396 113.662 117.892C114.312 117.388 114.679 116.704 114.683 115.99V106.619C114.683 102.803 110.178 100.155 105.418 100.155H82.3082Z" fill="#A09E9E"/>
<path d="M136.475 10.811C141.851 10.8111 142.99 14.4348 142.57 18.5888L138.716 56.6598C138.716 57.3055 138.41 57.9288 137.867 58.4169C127.874 67.399 117.882 76.3978 107.807 85.3383C107.804 89.2422 107.846 93.1632 107.767 97.1052C107.728 98.5973 106.171 99.7926 104.252 99.7752L83.4004 99.5958C81.4919 99.5764 79.9594 98.3674 79.9666 96.8836L83.4417 70.8856C83.4417 70.1995 83.7646 69.5373 84.3648 69.0334L97.3216 58.285L108.093 49.3094C111.582 46.4069 117.43 43.9771 121.151 46.6078L126.92 18.1666C127.286 16.3686 128.171 14.6481 129.744 13.2435C131.317 11.839 133.758 10.811 136.463 10.811H136.475Z" fill="#A09E9E"/>
<path d="M40.5428 100.145C35.7835 100.145 31.2854 102.793 31.285 106.609V115.98C31.2887 116.693 31.6545 117.376 32.3029 117.88C32.9512 118.384 33.8295 118.668 34.7465 118.671H69.4489C70.367 118.67 71.2471 118.386 71.8969 117.882C72.5468 117.378 72.9134 116.694 72.9171 115.98V106.609C72.9171 102.793 68.4117 100.145 63.6527 100.145H40.5428Z" fill="#A09E9E"/>
<path d="M9.51894 10.8024C4.14348 10.8024 3.00387 14.4261 3.42434 18.58L7.27835 56.6505C7.27835 57.2962 7.58416 57.9195 8.12695 58.4076C18.1196 67.3896 28.1116 76.3883 38.187 85.3286C38.1904 89.2325 38.1523 93.1534 38.2218 97.0954C38.2565 98.5874 39.8182 99.7827 41.7375 99.7653L62.5883 99.5859C64.4967 99.567 66.0298 98.3575 66.0225 96.8738L62.5475 70.8761C62.5475 70.19 62.2243 69.5279 61.6245 69.024L48.6679 58.2757L37.8968 49.3002C34.4076 46.3978 28.5595 43.968 24.8385 46.5986L19.0694 18.1579C18.7046 16.3599 17.8188 14.6394 16.246 13.2349C14.6736 11.8303 12.2319 10.8023 9.52657 10.8024H9.51894Z" fill="#A09E9E"/>
<path d="M135.654 8.11749C132.793 8.11747 130.193 9.11499 128.472 10.5705C126.751 12.026 125.777 13.8665 125.368 15.7757L118.801 46.4683C118.683 46.3656 118.932 46.2082 118.801 46.1093C114.803 42.9608 108.151 42.9608 104.153 46.1093L92.0198 55.662L77.475 67.1294C76.8345 67.6343 76.475 68.3148 76.4741 69.024V99.577H83.4259V70.1209L96.9704 59.4513L109.104 49.8985C110.481 48.8136 112.472 48.8137 113.85 49.8985C115.227 50.9833 115.227 52.6628 113.85 53.7476L96.8677 67.1294L101.819 70.9186L118.801 57.5368L123.649 53.7276C124.151 53.33 124.482 52.8215 124.598 52.2718L132.217 16.6532C132.44 15.6106 133.001 14.7483 133.602 14.2401C134.204 13.7319 134.715 13.5221 135.654 13.5221C137.566 13.5221 139.041 14.6524 139.041 16.2144V55.702L123.521 69.0639L128.677 72.6737L145.095 58.5539C145.673 58.0566 145.994 57.4097 145.993 56.739V16.2144C145.993 11.7897 141.345 8.11754 135.654 8.11749ZM118.596 72.9329L105.18 84.4003C104.601 84.8976 104.281 85.5444 104.281 86.2151V97.6824H111.233V87.2521L123.751 76.5626L118.596 72.9329Z" fill="#324A32"/>
<path d="M79.9633 97.2636C74.2478 97.2637 69.5228 100.917 69.5228 105.361V118.882H76.4746V105.361C76.4746 103.817 77.9777 102.668 79.9633 102.668H107.745C109.73 102.668 111.234 103.817 111.234 105.361V118.882H118.185V105.361C118.185 100.917 113.46 97.2637 107.745 97.2636H79.9633Z" fill="#324A32"/>
<path d="M66.0536 99.5832V69.0176L51.4999 57.5556L39.3723 48.0038C36.6848 45.8871 32.3576 45.8871 29.6701 48.0038C26.9825 50.1205 26.9826 53.5286 29.6701 55.6452L46.6488 69.0176M38.24 97.6729V86.2108C26.5907 76.4314 15.0393 66.582 3.47626 56.741V16.2163C3.47626 13.223 6.53634 10.8131 10.3371 10.8131C14.1378 10.813 16.5657 13.2646 17.1975 16.2163L24.819 51.8245L46.6488 69.0176" stroke="black" stroke-width="1.99928" stroke-linejoin="round"/>
<path d="M41.6219 2.50232C41.1298 2.51104 40.6457 2.60093 40.2017 2.76602C39.7576 2.93112 39.3636 3.16765 39.046 3.45997C38.7284 3.7523 38.4943 4.09374 38.3592 4.4617C38.2241 4.82966 38.1911 5.21575 38.2623 5.59438C38.2623 5.59438 39.7004 13.9378 43.6987 20.8911C45.6979 24.3678 48.265 27.7268 52.6984 29.3284C54.9155 30.1291 57.6196 30.3112 60.2185 29.6872C62.8174 29.0631 65.2834 27.7605 67.7589 25.7983C70.2345 23.8362 71.8822 21.8889 72.6592 19.8569C73.4352 17.8249 73.1961 15.71 72.1977 13.9736C70.201 10.5007 65.9481 8.46053 61.5488 6.87131C52.7498 3.69291 42.2122 2.54453 42.2122 2.54453C42.0171 2.51918 41.8197 2.50682 41.6219 2.5076V2.50232Z" fill="#AED581"/>
<path d="M104.371 2.51082C104.863 2.51953 105.347 2.60943 105.791 2.77452C106.235 2.93962 106.629 3.17615 106.947 3.46848C107.265 3.76081 107.498 4.10227 107.634 4.47024C107.769 4.8382 107.802 5.22431 107.731 5.60295C107.731 5.60295 106.292 13.9465 102.294 20.8999C100.295 24.3767 97.7278 27.7357 93.2943 29.3372C91.0772 30.138 88.3731 30.3201 85.7741 29.696C83.1752 29.072 80.7092 27.7694 78.2335 25.8072C75.7579 23.845 74.1103 21.8977 73.3331 19.8657C72.5569 17.8337 72.7971 15.7187 73.7953 13.9822C75.792 10.5093 80.0447 8.4691 84.4442 6.87986C93.2433 3.7014 103.781 2.55304 103.781 2.55304C103.976 2.52778 104.173 2.51547 104.371 2.51627V2.51082Z" fill="#AED581"/>
<path d="M69.5228 18.9267V43.2375H76.4746V18.9267H69.5228Z" fill="#324A32"/>
<path d="M38.1755 0.000442505C37.6812 0.00628693 37.1945 0.0940554 36.7474 0.257834C36.3002 0.421614 35.9031 0.657596 35.5826 0.95016C35.2621 1.24272 35.0255 1.58513 34.8888 1.95441C34.752 2.32369 34.7181 2.71137 34.7894 3.09164C34.7894 3.09164 36.6303 13.3065 41.5616 21.7186C44.0272 25.9246 47.2057 29.9142 52.3869 31.75C54.9775 32.6679 58.0829 32.8676 61.1344 32.1489C64.1858 31.4301 67.1595 29.8978 70.1896 27.542C73.2198 25.1863 75.1908 22.8744 76.1153 20.5021C77.04 18.1297 76.7578 15.7155 75.577 13.7014C73.2157 9.67332 68.1097 7.2023 62.6996 5.28539C51.8794 1.45157 38.7402 0.0403289 38.7402 0.0403289C38.5537 0.0151164 38.3644 0.00181198 38.1751 0.000520408L38.1755 0.000442505ZM43.229 6.5817C47.2152 7.15157 52.7116 7.67971 59.8004 10.1914C64.5191 11.8633 68.1654 14.0573 69.2662 15.9351C69.8165 16.874 69.9491 17.7213 69.471 18.9465C68.9929 20.1717 67.7463 21.8029 65.264 23.7329C62.7815 25.6628 60.709 26.6124 59.1331 26.9836C57.5571 27.3548 56.4672 27.2519 55.2596 26.824C52.8442 25.9682 50.0221 23.1533 47.8717 19.4849C44.6398 13.9718 43.9611 9.67901 43.2286 6.58162L43.229 6.5817Z" fill="#324A32"/>
<path d="M58.1074 14.3198L53.1822 18.1489L65.4697 27.7017L70.3949 23.8726L58.1074 14.3198ZM107.642 0.0205821C107.582 0.0261681 107.522 0.0329665 107.462 0.0409927C107.462 0.0409927 94.3231 1.45223 83.5029 5.28605C78.0927 7.20295 72.9611 9.67397 70.5998 13.7021C69.419 15.7161 69.1367 18.1304 70.0615 20.5027C70.9861 22.875 72.957 25.1869 75.9872 27.5426C79.0173 29.8984 81.9909 31.4308 85.0424 32.1495C88.0939 32.8683 91.225 32.6685 93.8156 31.7507C98.9968 29.9148 102.175 25.9253 104.641 21.7192C109.572 13.3071 111.387 3.0923 111.387 3.0923C111.461 2.68946 111.416 2.2789 111.257 1.89127C111.098 1.50364 110.828 1.14896 110.468 0.853677C110.108 0.558398 109.667 0.330221 109.178 0.186048C108.688 0.0418754 108.164 -0.0145726 107.642 0.0210495V0.0205821ZM102.973 6.58189C102.241 9.67882 101.537 13.9715 98.3047 19.4851C96.1542 23.1536 93.3322 25.9684 90.9168 26.8242C89.7098 27.2522 88.6449 27.355 87.069 26.9838C85.493 26.6127 83.3949 25.663 80.9124 23.7331C78.4301 21.8032 77.2086 20.172 76.7311 18.9467C76.253 17.7215 76.3856 16.8742 76.9359 15.9353C78.0365 14.0576 81.6573 11.8636 86.376 10.1917C93.4749 7.67637 98.9953 7.15008 102.973 6.58197L102.973 6.58189Z" fill="#324A32"/>
<path d="M88.0928 14.3198L75.8054 23.8726L80.7049 27.7017L92.9924 18.1489L88.0928 14.3198ZM69.5206 99.7752V69.0241C69.5198 68.3149 69.1607 67.6345 68.5197 67.1295L53.9749 55.6621L41.8413 46.1093C37.8437 42.9608 31.1913 42.9608 27.1939 46.1093C27.0625 46.2084 27.3121 46.3656 27.1939 46.4684L20.6269 15.7757C20.2184 13.8665 19.244 12.0261 17.523 10.5706C15.8019 9.11509 13.2017 8.11747 10.3403 8.11749C4.65015 8.11754 0.00244286 11.7898 0.00244286 16.2145V56.7391C0.00165482 57.4097 0.321466 58.0566 0.900674 58.554C12.1565 68.1335 23.4143 77.7382 34.7621 87.2722C34.7666 91.4306 34.7356 95.6012 34.7882 99.7965M41.7399 99.775C41.7268 96.1747 41.727 89.8432 41.7139 86.215C41.714 85.5348 41.384 84.8796 40.7904 84.3802C29.4615 74.8698 18.2124 65.2836 6.95502 55.7018V16.2143C6.95502 14.6522 8.42973 13.522 10.3411 13.5219C11.2802 13.5219 11.7924 13.7317 12.3933 14.2399C12.9948 14.7481 13.5556 15.6105 13.7785 16.653L21.3973 52.2716C21.5155 52.8214 21.8451 53.3299 22.3468 53.7275L27.1951 57.5366L44.1769 70.9185L49.1278 67.1293L32.146 53.7474C30.7686 52.6626 30.7685 50.9832 32.146 49.8984C33.5233 48.8135 35.5143 48.8135 36.8916 49.8984L49.0252 59.4512L62.5696 70.1208V99.775" fill="#324A32"/>
<path d="M38.2525 97.2636C32.5371 97.2637 27.8122 100.917 27.812 105.361V118.882H34.7637V105.361C34.7639 103.817 36.2673 102.668 38.2525 102.668H66.034C68.0193 102.668 69.5227 103.817 69.5227 105.361V118.882H76.4745V105.361C76.4745 100.917 71.7494 97.2637 66.034 97.2636H38.2525Z" fill="#324A32"/>
</g>
<defs>
<clipPath id="clip0_1019_12146">
<rect width="146" height="118.886" fill="white"/>
</clipPath>
</defs>
</svg>
