<svg width="146" height="154" viewBox="0 0 146 154" fill="none" xmlns="http://www.w3.org/2000/svg">
<path d="M73 141.167C39.4018 141.167 12.1667 112.439 12.1667 77C12.1667 41.5607 39.4018 12.8333 73 12.8333C106.598 12.8333 133.833 41.5607 133.833 77C133.833 112.439 106.598 141.167 73 141.167ZM73 128.333C85.9072 128.333 98.2858 122.925 107.413 113.298C116.539 103.671 121.667 90.6144 121.667 77C121.667 63.3855 116.539 50.3287 107.413 40.7018C98.2858 31.075 85.9072 25.6667 73 25.6667C60.0928 25.6667 47.7142 31.075 38.5875 40.7018C29.4607 50.3287 24.3333 63.3855 24.3333 77C24.3333 90.6144 29.4607 103.671 38.5875 113.298C47.7142 122.925 60.0928 128.333 73 128.333ZM61.1375 70.5833H91.25V83.4167H61.1375C61.6645 86.1459 62.8561 88.6833 64.595 90.7793C66.3339 92.8753 68.5602 94.4576 71.0549 95.3705C73.5495 96.2835 76.2266 96.4956 78.8225 95.986C81.4185 95.4764 83.8439 94.2626 85.8602 92.4642L96.2018 99.7342C92.6482 103.815 88.0566 106.731 82.9748 108.134C77.8931 109.537 72.5359 109.369 67.5425 107.648C62.5491 105.928 58.1304 102.729 54.8136 98.4322C51.4968 94.1355 49.4221 88.923 48.837 83.4167H42.5833V70.5833H48.8309C49.414 65.0742 51.4882 59.8586 54.8057 55.5594C58.1233 51.2601 62.5439 48.059 67.5397 46.3384C72.5355 44.6177 77.8952 44.4503 82.9788 45.856C88.0624 47.2617 92.6549 50.1812 96.2079 54.2657L85.8602 61.5358C83.8439 59.7374 81.4185 58.5236 78.8225 58.014C76.2266 57.5044 73.5495 57.7165 71.0549 58.6294C68.5602 59.5424 66.3339 61.1247 64.595 63.2207C62.8561 65.3167 61.6645 67.8541 61.1375 70.5833Z" fill="#324A32"/>
</svg>
